<svg xmlns="http://www.w3.org/2000/svg" width="200" height="200" viewBox="0 0 200 200"><g transform="translate(57 78)"><rect width="200" height="200" transform="translate(-57 -78)" fill="none"/><g transform="translate(168 -14.169)"><g transform="translate(-218.776 -56.797)"><path d="M105.874,101.689a34.325,34.325,0,0,0,29.492-33.971V62.306a17.381,17.381,0,0,0-17.361-17.361H113.72V34.358a2.035,2.035,0,0,0-2.035-2.035H47.218a2.035,2.035,0,0,0-2.035,2.035V44.945H40.9A17.381,17.381,0,0,0,23.536,62.306v5.412A34.325,34.325,0,0,0,53.03,101.689a34.264,34.264,0,0,0,13.346,9.876V121H56.08a2.035,2.035,0,0,0-2.035,2.035v27.549a2.035,2.035,0,0,0,2.035,2.035h46.743a2.035,2.035,0,0,0,2.035-2.035V123.032A2.035,2.035,0,0,0,102.823,121h-10.3v-9.433A34.271,34.271,0,0,0,105.874,101.689Zm4.732-7.524c.119-.259.238-.518.351-.78.262-.611.5-1.229.729-1.853.067-.185.143-.367.206-.553q.413-1.209.733-2.448c.053-.2.093-.411.142-.615.152-.635.288-1.275.4-1.92.05-.282.095-.564.138-.847q.139-.91.228-1.832c.026-.265.057-.529.077-.795.065-.867.107-1.738.107-2.618V49.014h4.285A13.306,13.306,0,0,1,131.3,62.306v5.412a30.282,30.282,0,0,1-22.061,29.144c.065-.113.119-.23.182-.343.134-.241.258-.485.387-.729Q110.227,94.986,110.606,94.165Zm-83-26.448V62.306A13.307,13.307,0,0,1,40.9,49.014h4.285V79.9c0,.88.042,1.752.107,2.619.02.266.051.528.076.793q.09.922.228,1.832c.043.284.088.568.138.851.115.645.251,1.284.4,1.918.049.205.089.413.142.617q.321,1.239.733,2.449c.063.185.138.365.2.548.226.627.469,1.248.732,1.861.111.258.228.512.345.767q.384.836.816,1.652c.123.233.242.468.371.7.065.117.121.237.187.353A30.282,30.282,0,0,1,27.606,67.717Zm73.182,57.35v23.479H58.115V125.067h42.673ZM70.445,121v-8.024l.065.015c.116.031.234.053.35.083q1.122.29,2.264.5c.3.057.61.1.916.152q.891.141,1.788.234c.325.034.649.071.976.1q1.145.087,2.294.1c.118,0,.235.015.353.015s.235-.014.353-.015q1.149-.012,2.294-.1c.326-.025.651-.062.975-.1q.9-.094,1.793-.235c.3-.048.606-.094.908-.151q1.174-.218,2.327-.516c.093-.024.187-.041.279-.066l.077-.018V121Zm19.35-12.715q-1.24.452-2.516.792a30.638,30.638,0,0,1-13.078.566,29.731,29.731,0,0,1-5.093-1.358h0a30.232,30.232,0,0,1-13.4-9.733A29.921,29.921,0,0,1,49.253,79.9V49.023H72.869a2.035,2.035,0,1,0,0-4.069H49.253V36.392h60.4V79.9q0,1.279-.1,2.54A29.9,29.9,0,0,1,103.2,98.55h0A30.241,30.241,0,0,1,89.795,108.282Z" transform="translate(4.979 24.234)" fill="#37bffa"/><path d="M44.074,80.357V93.379a2.035,2.035,0,0,0,2.035,2.035H68.2a2.035,2.035,0,0,0,2.035-2.035V80.357A2.035,2.035,0,0,0,68.2,78.323H46.109A2.035,2.035,0,0,0,44.074,80.357Zm4.07,2.035H66.167v8.952H48.143Z" transform="translate(27.275 74.172)" fill="#37bffa"/><path d="M53.071,65.234q-.829.066-1.666.065a2.035,2.035,0,0,0,0,4.07q1,0,1.986-.077a2.035,2.035,0,0,0-.32-4.058Z" transform="translate(33.025 59.957)" fill="#37bffa"/><path d="M56.226,76.045A21.187,21.187,0,0,1,42.338,56.2a2.035,2.035,0,0,0-4.07,0A25.268,25.268,0,0,0,54.833,79.868a2.034,2.034,0,1,0,1.393-3.823Z" transform="translate(20.973 47.942)" fill="#37bffa"/><path d="M57.848,38.379H54.671a2.035,2.035,0,0,0,0,4.07h3.177a2.035,2.035,0,1,0,0-4.07Z" transform="translate(36.57 30.809)" fill="#37bffa"/><path d="M92.787,75.452a9.169,9.169,0,0,1-9.149-9.168,2.035,2.035,0,0,0-4.069,0A9.179,9.179,0,0,1,70.4,75.452a2.035,2.035,0,1,0,0,4.07,9.169,9.169,0,0,1,9.168,9.149,2.035,2.035,0,0,0,4.069,0,9.16,9.16,0,0,1,9.149-9.149,2.035,2.035,0,0,0,0-4.07ZM81.6,81.633a13.336,13.336,0,0,0-4.154-4.147A13.368,13.368,0,0,0,81.6,73.332a13.336,13.336,0,0,0,4.147,4.154A13.3,13.3,0,0,0,81.6,81.633Z" transform="translate(78.646 4.894)" fill="#37bffa"/><path d="M61.493,25.273a9.17,9.17,0,0,1,9.169,9.149,2.035,2.035,0,1,0,4.069,0,9.16,9.16,0,0,1,9.149-9.149,2.035,2.035,0,0,0,0-4.069,9.169,9.169,0,0,1-9.149-9.168,2.035,2.035,0,1,0-4.069,0A9.179,9.179,0,0,1,61.493,21.2a2.035,2.035,0,1,0,0,4.069Zm11.2-6.19a13.35,13.35,0,0,0,4.148,4.154A13.328,13.328,0,0,0,72.7,27.384a13.325,13.325,0,0,0-4.154-4.147A13.347,13.347,0,0,0,72.7,19.083Z" transform="translate(53.977)" fill="#37bffa"/><path d="M49.6,31.358a4.85,4.85,0,0,1,4.85,4.839,2.035,2.035,0,1,0,4.069,0,4.845,4.845,0,0,1,4.839-4.839,2.035,2.035,0,1,0,0-4.07,4.85,4.85,0,0,1-4.839-4.85,2.035,2.035,0,1,0-4.069,0,4.856,4.856,0,0,1-4.85,4.85,2.035,2.035,0,0,0,0,4.07ZM56.487,28.1A8.917,8.917,0,0,0,57.7,29.322a8.9,8.9,0,0,0-1.216,1.216,8.918,8.918,0,0,0-1.218-1.216A8.932,8.932,0,0,0,56.487,28.1Z" transform="translate(31.068 11.294)" fill="#37bffa"/><path d="M34.744,72.272A4.851,4.851,0,0,1,29.9,67.42a2.035,2.035,0,1,0-4.07,0,4.856,4.856,0,0,1-4.85,4.851,2.035,2.035,0,0,0,0,4.07,4.85,4.85,0,0,1,4.85,4.838,2.035,2.035,0,1,0,4.07,0,4.845,4.845,0,0,1,4.839-4.838,2.035,2.035,0,1,0,0-4.07ZM27.869,75.52a8.909,8.909,0,0,0-1.218-1.215,9.045,9.045,0,0,0,1.218-1.218,9.031,9.031,0,0,0,1.216,1.218A8.9,8.9,0,0,0,27.869,75.52Z" transform="translate(-5 -15.873)" fill="#37bffa"/><path d="M25.571,29.932A13.83,13.83,0,0,1,39.4,43.732a2.035,2.035,0,1,0,4.069,0,13.816,13.816,0,0,1,13.8-13.8,2.035,2.035,0,0,0,0-4.07,13.83,13.83,0,0,1-13.8-13.828,2.035,2.035,0,1,0-4.069,0A13.844,13.844,0,0,1,25.571,25.863a2.035,2.035,0,0,0,0,4.07Zm15.861-9.611A18.013,18.013,0,0,0,49,27.9a18.01,18.01,0,0,0-7.564,7.564A18.013,18.013,0,0,0,33.857,27.9,18.016,18.016,0,0,0,41.432,20.321Z" transform="translate(4.979)" fill="#37bffa"/><path d="M25.571,29.932A13.83,13.83,0,0,1,39.4,43.732a2.035,2.035,0,1,0,4.069,0,13.816,13.816,0,0,1,13.8-13.8,2.035,2.035,0,0,0,0-4.07,13.83,13.83,0,0,1-13.8-13.828,2.035,2.035,0,1,0-4.069,0A13.844,13.844,0,0,1,25.571,25.863a2.035,2.035,0,0,0,0,4.07Zm15.861-9.611A18.013,18.013,0,0,0,49,27.9a18.01,18.01,0,0,0-7.564,7.564A18.013,18.013,0,0,0,33.857,27.9,18.016,18.016,0,0,0,41.432,20.321Z" transform="translate(-7.021 114)" fill="#37bffa"/></g></g><ellipse cx="20.5" cy="21" rx="20.5" ry="21" transform="translate(68 47.831)" fill="#fff"/><g transform="translate(46.296 29.831)"><g transform="translate(5 5)"><g transform="translate(-5 -5)" fill="#37bffa"><path d="M 38.5 74 C 36.43843078613281 74 34.56420135498047 72.95005035400391 33.48643112182617 71.19136810302734 L 33.36846923828125 70.99874877929688 C 32.44755935668945 69.49561309814453 30.84540939331055 68.59799957275391 29.08292961120605 68.59799957275391 C 28.2531795501709 68.59799957275391 27.42596054077148 68.80918884277344 26.69070053100586 69.20874786376953 L 26.49529075622559 69.31498718261719 C 25.62927055358887 69.78486633300781 24.65793037414551 70.03279876708984 23.68477058410645 70.03279876708984 C 22.65819931030273 70.03279876708984 21.64162063598633 69.7586669921875 20.74493980407715 69.24004364013672 C 18.95886039733887 68.20832061767578 17.86100006103516 66.36048889160156 17.80912017822266 64.29763793945312 L 17.80388069152832 64.08338165283203 C 17.73682022094727 61.40919876098633 15.58792018890381 59.26094055175781 12.91172981262207 59.1938591003418 L 12.70048046112061 59.18865966796875 C 10.63667011260986 59.13668060302734 8.789150238037109 58.03910827636719 7.757180213928223 56.25262069702148 C 6.725450038909912 54.46652984619141 6.697150230407715 52.31787872314453 7.681489944458008 50.50497055053711 L 7.683670043945312 50.50096130371094 L 7.685860157012939 50.4969596862793 L 7.791944026947021 50.30368804931641 C 9.064943313598633 47.95753479003906 8.279201507568359 45.02771759033203 6.002358436584473 43.63174438476562 L 5.811709880828857 43.51560974121094 L 5.809090137481689 43.51401901245117 L 5.806489944458008 43.51242065429688 C 4.049149990081787 42.43453979492188 3 40.56074142456055 3 38.5 C 3 36.84561157226562 3.67650842666626 35.31139373779297 4.852920055389404 34.21267700195312 L 4.852920055389404 33.19168090820312 L 6.271034240722656 33.19115447998047 C 8.340241432189941 31.7380199432373 9.015132904052734 28.9446907043457 7.790440082550049 26.69054985046387 L 7.682759761810303 26.49176025390625 C 6.698329925537109 24.68062019348145 6.726290225982666 22.53120994567871 7.75894021987915 20.74465942382812 C 8.791410446166992 18.95841979980469 10.63914012908936 17.86101913452148 12.70158958435059 17.80912017822266 L 12.91221046447754 17.80389976501465 C 15.58893966674805 17.73736000061035 17.73831939697266 15.58878993988037 17.80540084838867 12.9124698638916 L 17.81060028076172 12.7030200958252 C 17.86248016357422 10.63860034942627 18.96034049987793 8.790200233459473 20.74739074707031 7.757919788360596 C 21.64343070983887 7.239659786224365 22.66016006469727 6.965429782867432 23.68668937683105 6.965429782867432 C 24.66027069091797 6.965429782867432 25.63163948059082 7.213699817657471 26.49580955505371 7.68340015411377 L 26.69289970397949 7.790500164031982 C 27.4278392791748 8.190150260925293 28.25436973571777 8.401220321655273 29.08366966247559 8.401180267333984 C 30.84610939025879 8.401100158691406 32.44807815551758 7.504209995269775 33.36893844604492 6.001979827880859 L 33.48630142211914 5.809800148010254 C 34.56407928466797 4.04964017868042 36.43790054321289 3 38.5 3 C 40.56158828735352 3 42.43582153320312 4.049960136413574 43.51358032226562 5.808650016784668 L 43.63153076171875 6.001259803771973 C 44.55263137817383 7.504370212554932 46.15494918823242 8.401980400085449 47.91741180419922 8.401849746704102 C 48.74723815917969 8.401789665222168 49.5743408203125 8.19064998626709 50.30929946899414 7.791259765625 L 50.504638671875 7.685050010681152 C 51.36872863769531 7.215099811553955 52.34040069580078 6.966639995574951 53.31443023681641 6.966639995574951 C 54.34130859375 6.966639995574951 55.35828018188477 7.241040229797363 56.25540924072266 7.760169982910156 C 58.04114151000977 8.791689872741699 59.13899993896484 10.63951969146729 59.19087982177734 12.70236015319824 L 59.19612121582031 12.91664028167725 C 59.26317977905273 15.59080028533936 61.41207885742188 17.73905944824219 64.08827209472656 17.8061408996582 L 64.29943084716797 17.81131935119629 C 66.36335754394531 17.86331939697266 68.21087646484375 18.96091079711914 69.24282836914062 20.74739074707031 C 70.27456665039062 22.53347015380859 70.3028564453125 24.68213081359863 69.31851196289062 26.49504089355469 L 69.31632995605469 26.49905014038086 L 69.31414031982422 26.5030403137207 L 69.20805358886719 26.69631195068359 C 67.93505859375 29.04246520996094 68.72079467773438 31.97228050231934 70.99764251708984 33.36825561523438 L 71.18829345703125 33.48439025878906 L 71.19091033935547 33.48598098754883 L 71.19351196289062 33.48757934570312 C 72.95085144042969 34.56546020507812 74 36.43925857543945 74 38.5 C 74 40.56047821044922 72.95069122314453 42.43449020385742 71.19309234619141 43.51296997070312 L 70.99553680419922 43.6339111328125 C 68.71891021728516 45.02925109863281 67.93403625488281 47.96173095703125 69.20957183837891 50.30944061279297 L 69.31725311279297 50.50822830200195 C 70.30165863037109 52.31938934326172 70.27371215820312 54.46878814697266 69.24108123779297 56.25531005859375 C 68.20861053466797 58.04156875610352 66.36087799072266 59.13896942138672 64.29840850830078 59.19086837768555 L 64.087890625 59.19609832763672 C 61.41107177734375 59.26263046264648 59.26168823242188 61.41120910644531 59.19461059570312 64.08753204345703 L 59.18941116333008 64.29696655273438 C 59.13750839233398 66.36139678955078 58.0396614074707 68.20980072021484 56.25262832641602 69.24208068847656 C 55.35520553588867 69.76023864746094 54.33865356445312 70.03401947021484 53.31253814697266 70.03401947021484 C 53.31247711181641 70.03401947021484 53.31243133544922 70.03401947021484 53.31237030029297 70.03401947021484 C 52.3386116027832 70.03398895263672 51.36753082275391 69.78589630126953 50.50411987304688 69.31655883789062 L 50.30707931518555 69.20948028564453 C 49.57213973999023 68.81008911132812 48.74514007568359 68.5989990234375 47.91545104980469 68.5989990234375 C 46.1533203125 68.5989990234375 44.55171966552734 69.49575805664062 43.63116836547852 70.99784088134766 L 43.51369857788086 71.19020080566406 C 42.43590927124023 72.95037078857422 40.56209182739258 74 38.5 74 Z M 29.0827808380127 61.62052917480469 C 31.10013961791992 61.62052917480469 33.10126876831055 62.13394165039062 34.86983108520508 63.10525131225586 C 36.27306365966797 63.87591552734375 37.50848007202148 64.92520141601562 38.50005722045898 66.18055725097656 C 39.49139404296875 64.92629241943359 40.72709274291992 63.87705993652344 42.1303596496582 63.10654067993164 C 43.8990592956543 62.13537979125977 45.90029144287109 61.62205123901367 47.91770935058594 61.62205123901367 C 49.42871475219727 61.62205123901367 50.93443298339844 61.91322326660156 52.34092712402344 62.47164916992188 C 53.1019172668457 57.23274230957031 57.23111343383789 53.10327911376953 62.46932983398438 52.34177398681641 C 60.50904083251953 47.42579650878906 62.02216720581055 41.77781295776367 66.17945098876953 38.49970626831055 C 62.02354049682617 35.22201156616211 60.50992202758789 29.5760555267334 62.46915817260742 24.6589469909668 C 57.23061370849609 23.89739608764648 53.10195922851562 19.76758575439453 52.34147262573242 14.52867889404297 C 50.93480682373047 15.0873966217041 49.42907333374023 15.37862014770508 47.91778182983398 15.37862014770508 C 45.9005012512207 15.37862014770508 43.89934158325195 14.86530017852783 42.13064956665039 13.89414978027344 C 40.72738265991211 13.1236457824707 39.49181365966797 12.07449054718018 38.50021362304688 10.81952667236328 C 37.50917816162109 12.07388114929199 36.27371978759766 13.12327098846436 34.87065887451172 13.89391994476318 C 33.10211944580078 14.86532020568848 31.10088920593262 15.37876987457275 29.08333969116211 15.37876987457275 C 27.57200050354004 15.37876987457275 26.06588172912598 15.08737945556641 24.6590404510498 14.52857398986816 C 23.89762687683105 19.76701736450195 19.76851272583008 23.89677047729492 14.53067207336426 24.65823173522949 C 16.49095916748047 29.57421684265137 14.97830104827881 35.22182464599609 10.82102203369141 38.49992752075195 C 14.97692108154297 41.77762222290039 16.49007225036621 47.42319488525391 14.53084468841553 52.34030532836914 C 19.76938247680664 53.10185623168945 23.89802932739258 57.23159790039062 24.65852546691895 62.47050476074219 C 26.06506729125977 61.91183853149414 27.57115745544434 61.62052917480469 29.0827808380127 61.62052917480469 Z" stroke="none"/><path d="M 38.5 5 C 37.13916397094727 5 35.90337371826172 5.692337036132812 35.19317626953125 6.8521728515625 L 35.07406234741211 7.047225952148438 C 33.75388717651367 9.200881958007812 31.45100784301758 10.40117645263672 29.08375549316406 10.40117645263672 C 27.94960403442383 10.40117645263672 26.8009147644043 10.12580871582031 25.73798751831055 9.547813415527344 L 25.54071426391602 9.44061279296875 C 24.95744705200195 9.12359619140625 24.32152557373047 8.965431213378906 23.68667221069336 8.965431213378906 C 23.01857757568359 8.965431213378906 22.35164260864258 9.140472412109375 21.74776077270508 9.489753723144531 C 20.56856155395508 10.17091369628906 19.8442268371582 11.39031219482422 19.80997467041016 12.75263977050781 L 19.80476379394531 12.96257781982422 C 19.71096420288086 16.70489883422852 16.70563888549805 19.71022415161133 12.96182250976562 19.80327606201172 L 12.75189971923828 19.80848693847656 C 11.39105224609375 19.84272384643555 10.17165374755859 20.56707382202148 9.490486145019531 21.74552536010742 C 8.809326171875 22.92398834228516 8.79071044921875 24.3421516418457 9.441352844238281 25.53922653198242 L 9.547813415527344 25.73574829101562 C 11.33149719238281 29.01874923706055 10.23343658447266 33.11989974975586 7.048698425292969 35.07182312011719 L 6.853660583496094 35.19093704223633 C 6.853660583496094 35.19093704223633 6.852928161621094 35.19093704223633 6.852928161621094 35.19168853759766 C 5.693077087402344 35.90337371826172 5 37.13990020751953 5 38.5 C 5 39.86009979248047 5.693077087402344 41.09662628173828 6.8521728515625 41.80756378173828 L 7.046478271484375 41.92593765258789 C 10.23269653320312 43.87861251831055 11.33074951171875 47.97975158691406 9.547813415527344 51.26126098632812 L 9.439125061035156 51.45928955078125 C 8.78997802734375 52.65486145019531 8.807823181152344 54.07303619384766 9.488998413085938 55.25222778320312 C 10.170166015625 56.43142700195312 11.39031219482422 57.15503692626953 12.74966430664062 57.18927764892578 L 12.96183776855469 57.19448852539062 C 16.70415115356445 57.28828811645508 19.70947647094727 60.29361343383789 19.80327606201172 64.03444671630859 L 19.80848693847656 64.24736022949219 C 19.84273910522461 65.60894775390625 20.56707382202148 66.82759857177734 21.74627685546875 67.50875854492188 C 22.34993743896484 67.85791778564453 23.01681518554688 68.03279876708984 23.68477249145508 68.03279876708984 C 24.3199577331543 68.03279876708984 24.95611572265625 67.87467956542969 25.53996276855469 67.55789947509766 L 25.73574829101562 67.45144653320312 C 26.79920196533203 66.87355804443359 27.9487419128418 66.59805297851562 29.08293914794922 66.59799957275391 C 31.4509391784668 66.59787750244141 33.75325775146484 67.79840087890625 35.07406234741211 69.95426177978516 L 35.19168853759766 70.14633941650391 C 35.90337371826172 71.30766296386719 37.13916397094727 72 38.5 72 C 39.86083602905273 72 41.09662628173828 71.30766296386719 41.80682373046875 70.14781188964844 L 41.92593765258789 69.95277404785156 C 43.24599456787109 67.79880523681641 45.54840087890625 66.59915161132812 47.91543960571289 66.59899139404297 C 49.0498046875 66.59891510009766 50.19864273071289 66.87432098388672 51.26201248168945 67.45218658447266 L 51.45928955078125 67.55938720703125 C 52.04183197021484 67.87604522705078 52.67748641967773 68.03401184082031 53.31241607666016 68.03401184082031 C 53.9805908203125 68.03401184082031 54.64797210693359 67.85914611816406 55.25223541259766 67.51025390625 C 56.43143844604492 66.82908630371094 57.15577697753906 65.60967254638672 57.19002532958984 64.24735260009766 L 57.19523620605469 64.03741455078125 C 57.28903961181641 60.29508972167969 60.29436492919922 57.28977584838867 64.03817749023438 57.19671249389648 L 64.24810028076172 57.19149780273438 C 65.60894775390625 57.15726470947266 66.82835388183594 56.43291473388672 67.50951385498047 55.25446319580078 C 68.190673828125 54.07600021362305 68.20928955078125 52.6578369140625 67.55864715576172 51.46077728271484 L 67.45218658447266 51.26423645019531 C 65.66851043701172 47.98123931884766 66.76656341552734 43.88008880615234 69.95128631591797 41.92816162109375 L 70.14708709716797 41.80830001831055 C 71.30692291259766 41.09662628173828 72 39.86009979248047 72 38.5 C 72 37.13990020751953 71.30692291259766 35.90337371826172 70.14781188964844 35.19243621826172 L 69.95352172851562 35.07406234741211 C 66.76730346679688 33.12138748168945 65.66923522949219 29.02024841308594 67.45218658447266 25.73872375488281 L 67.56087493896484 25.54071426391602 C 68.21003723144531 24.34512329101562 68.19216156005859 22.92696380615234 67.51100158691406 21.74776077270508 C 66.829833984375 20.56856155395508 65.60968780517578 19.84496307373047 64.25033569335938 19.81072616577148 L 64.03816223144531 19.80551147460938 C 60.29585266113281 19.71171188354492 57.29052734375 16.70638656616211 57.19672393798828 12.96555328369141 L 57.19149780273438 12.75264739990234 C 57.15726470947266 11.39105224609375 56.43291473388672 10.17240142822266 55.25371170043945 9.491233825683594 C 54.64974212646484 9.141746520996094 53.98238754272461 8.966682434082031 53.31443023681641 8.966644287109375 C 52.67908477783203 8.966606140136719 52.04322052001953 9.124923706054688 51.46002578735352 9.442100524902344 L 51.26423645019531 9.548553466796875 C 50.20098876953125 10.12633514404297 49.05154418945312 10.40184020996094 47.91755676269531 10.40184020996094 C 45.54933166503906 10.40184020996094 43.24684906005859 9.201286315917969 41.92592620849609 7.045722961425781 L 41.80831146240234 6.853660583496094 C 41.09662628173828 5.692337036132812 39.86083602905273 5 38.5 5 M 47.91776657104492 13.37862396240234 C 49.53398895263672 13.37862396240234 51.17098999023438 12.98635101318359 52.68613815307617 12.16304016113281 L 52.88192749023438 12.05658721923828 C 53.03379821777344 11.97357177734375 53.17861557006836 11.94446563720703 53.30697631835938 11.94446563720703 C 53.51586151123047 11.94446563720703 53.68126678466797 12.02146911621094 53.76333618164062 12.06849670410156 C 53.89511108398438 12.14442443847656 54.20256042480469 12.37073516845703 54.21373748779297 12.82559967041016 L 54.21894836425781 13.03776168823242 C 54.35219955444336 18.36798858642578 58.63201141357422 22.64853668212891 63.96148681640625 22.78179931640625 L 64.17366027832031 22.78701400756836 C 64.62926483154297 22.79817581176758 64.85556030273438 23.10563659667969 64.93150329589844 23.23664855957031 C 65.0081787109375 23.36842346191406 65.16152191162109 23.71756362915039 64.94490051269531 24.11584854125977 L 64.83619689941406 24.31386184692383 C 62.29616165161133 28.98972320556641 63.85950088500977 34.83137512207031 68.39762878417969 37.61187362670898 L 68.59193420410156 37.7302360534668 C 68.97978973388672 37.96921157836914 69.02222442626953 38.34813690185547 69.02222442626953 38.5 C 69.02222442626953 38.65186309814453 68.97978973388672 39.03078842163086 68.59267425537109 39.26826095581055 L 68.39688873291016 39.38812637329102 C 63.85874938964844 42.16862487792969 62.29541015625 48.00953674316406 64.83619689941406 52.68538665771484 L 64.94266510009766 52.88192749023438 C 65.16077423095703 53.28317260742188 65.00742340087891 53.63232421875 64.93150329589844 53.76408767700195 C 64.85481262207031 53.89511108398438 64.62924957275391 54.20256042480469 64.17216491699219 54.21372222900391 L 63.96223831176758 54.21894836425781 C 58.63126373291016 54.35219955444336 54.35144805908203 58.63275146484375 54.21820068359375 63.96372604370117 L 54.21298980712891 64.17365264892578 C 54.20107269287109 64.62999725341797 53.89362335205078 64.85631561279297 53.76259994506836 64.93223571777344 C 53.68104553222656 64.97924041748047 53.51616668701172 65.05561828613281 53.30776596069336 65.05561828613281 C 53.17947387695312 65.05561828613281 53.03470611572266 65.02669525146484 52.88265991210938 64.94415283203125 L 52.68538665771484 64.83695220947266 C 51.17033386230469 64.01419830322266 49.53326797485352 63.62204742431641 47.91770935058594 63.62204742431641 C 44.54563903808594 63.62204742431641 41.26723480224609 65.33046722412109 39.38737487792969 68.39762878417969 L 39.26752471923828 68.59267425537109 C 39.03004837036133 68.98052215576172 38.65186309814453 69.02222442626953 38.5 69.02222442626953 C 38.34813690185547 69.02222442626953 37.96995162963867 68.98052215576172 37.7302360534668 68.58895111083984 L 37.61187362670898 68.39688873291016 C 35.7328987121582 65.32902526855469 32.45436096191406 63.62052536010742 29.0827751159668 63.62052536010742 C 27.46658706665039 63.62052536010742 25.82881164550781 64.01284790039062 24.31386184692383 64.83619689941406 L 24.11807632446289 64.94266510009766 C 23.96580505371094 65.02530670166016 23.8209228515625 65.05426025390625 23.692626953125 65.05426025390625 C 23.48346710205078 65.05426025390625 23.31832504272461 64.97735595703125 23.23664855957031 64.93074798583984 C 23.10488891601562 64.85481262207031 22.79742431640625 64.62850952148438 22.78626251220703 64.17365264892578 L 22.78105163574219 63.96148681640625 C 22.64780044555664 58.63126373291016 18.36798858642578 54.35070037841797 13.03851318359375 54.21744918823242 L 12.82633972167969 54.21223831176758 C 12.37073516845703 54.20107269287109 12.14442443847656 53.89361190795898 12.06849670410156 53.76259994506836 C 11.9918212890625 53.63083648681641 11.83846282958984 53.28168487548828 12.05509948730469 52.88341522216797 L 12.16378784179688 52.68538665771484 C 14.70383834838867 48.00953674316406 13.14049911499023 42.16787338256836 8.602363586425781 39.38737487792969 L 8.408065795898438 39.26901245117188 C 8.020210266113281 39.03078842163086 7.977775573730469 38.65186309814453 7.977775573730469 38.5 C 7.977775573730469 38.34813690185547 8.020210266113281 37.96921157836914 8.408065795898438 37.73098754882812 L 8.603111267089844 37.61187362670898 C 13.14123916625977 34.83137512207031 14.70457458496094 28.99046325683594 12.16378784179688 24.31461334228516 L 12.05733489990234 24.11807632446289 C 11.83921051025391 23.71682357788086 11.99256134033203 23.36767578125 12.06849670410156 23.23591232299805 C 12.14517211914062 23.10488891601562 12.37073516845703 22.79742431640625 12.82783508300781 22.78626251220703 L 13.03776168823242 22.78105163574219 C 18.36873626708984 22.64780044555664 22.64853668212891 18.36724853515625 22.78179931640625 13.03627395629883 L 22.78701400756836 12.82634735107422 C 22.79892349243164 12.37000274658203 23.10637664794922 12.14368438720703 23.23740005493164 12.0677490234375 C 23.31852340698242 12.02074432373047 23.48299026489258 11.94405364990234 23.69154739379883 11.94404602050781 C 23.8198356628418 11.94404602050781 23.96479797363281 11.97306060791016 24.11733627319336 12.05584716796875 L 24.31461334228516 12.16304779052734 C 25.82991027832031 12.98628234863281 27.46768569946289 13.37876892089844 29.08333206176758 13.37876892089844 C 32.45557403564453 13.37876892089844 35.7332649230957 11.67003631591797 37.61262512207031 8.602371215820312 L 37.73247528076172 8.407325744628906 C 37.96995162963867 8.019462585449219 38.34813690185547 7.977775573730469 38.5 7.977775573730469 C 38.65186309814453 7.977775573730469 39.03004837036133 8.019462585449219 39.2697639465332 8.411041259765625 L 39.38812637329102 8.603111267089844 C 41.26713562011719 11.67022705078125 44.54619216918945 13.37862396240234 47.91776657104492 13.37862396240234 M 38.5 1 C 41.26291275024414 1 43.77462387084961 2.406959533691406 45.21883773803711 4.76361083984375 L 45.33715057373047 4.956809997558594 C 45.89137268066406 5.861236572265625 46.85626220703125 6.401840209960938 47.91756439208984 6.401840209960938 C 48.42173767089844 6.401840209960938 48.9051513671875 6.278060913085938 49.35434722900391 6.033966064453125 L 49.54936218261719 5.927940368652344 C 50.70556259155273 5.299140930175781 52.00756072998047 4.966651916503906 53.31420135498047 4.966651916503906 C 54.69277572631836 4.966728210449219 56.05604934692383 5.334114074707031 57.25707244873047 6.029075622558594 C 59.6494140625 7.411003112792969 61.12072372436523 9.887458801269531 61.19023895263672 12.652099609375 L 61.19552612304688 12.86740875244141 C 61.23581314086914 14.47436141967773 62.52849960327148 15.76641082763672 64.13838958740234 15.8067626953125 L 64.34857177734375 15.81193923950195 C 67.11544799804688 15.88162612915039 69.59156036376953 17.3526496887207 70.97464752197266 19.74698638916016 C 72.35728454589844 22.14054870605469 72.39522552490234 25.01995086669922 71.07612609863281 27.44937515258789 L 71.07177734375 27.45740127563477 L 71.06737518310547 27.46540069580078 L 70.9637451171875 27.65419769287109 C 70.20209503173828 29.06339263916016 70.67394256591797 30.82145690917969 72.039794921875 31.66121673583984 L 72.22904968261719 31.77652359008789 L 72.23411560058594 31.77961349487305 L 72.23916625976562 31.78269958496094 C 74.59407806396484 33.22708892822266 76 35.73822402954102 76 38.5 C 76 41.2613639831543 74.59403991699219 43.77263641357422 72.23905944824219 45.2176513671875 L 72.03971099853516 45.33968734741211 C 70.67160034179688 46.17819976806641 70.1995849609375 47.94227600097656 70.96693420410156 49.35465240478516 L 71.07579040527344 49.55557250976562 C 72.3941650390625 51.98513793945312 72.35568237304688 54.86337280273438 70.97262573242188 57.25617218017578 C 69.58893585205078 59.6500244140625 67.11271667480469 61.12070083618164 64.34870147705078 61.19023895263672 L 64.13746643066406 61.19547271728516 C 62.52731323242188 61.23550033569336 61.23432540893555 62.52786254882812 61.19398880004883 64.13763427734375 L 61.18878936767578 64.34663391113281 C 61.11923980712891 67.11347198486328 59.64792633056641 69.59048461914062 57.25301361083984 70.97389984130859 C 56.05159759521484 71.66757202148438 54.68920135498047 72.03401184082031 53.31241226196289 72.03401184082031 C 52.00602722167969 72.03401184082031 50.70462417602539 71.70195007324219 49.54892730712891 71.07371520996094 L 49.35216522216797 70.966796875 C 48.90296173095703 70.72268676757812 48.41970062255859 70.59895324707031 47.91570281982422 70.59898376464844 C 46.85475158691406 70.59906005859375 45.89061737060547 71.13873291015625 45.3365478515625 72.04268646240234 L 45.22055053710938 72.23262786865234 C 43.77517318725586 74.59312438964844 41.26372528076172 76 38.5 76 C 35.73708724975586 76 33.22537612915039 74.59304046630859 31.78116226196289 72.23638916015625 L 31.66287612915039 72.04323577880859 C 31.10856246948242 71.13846588134766 30.14402389526367 70.59794616699219 29.08314895629883 70.59799957275391 C 28.57863616943359 70.5980224609375 28.09500122070312 70.72184753417969 27.64564895629883 70.96603393554688 L 27.45062637329102 71.07205963134766 C 26.2911376953125 71.70116424560547 24.98998641967773 72.03279876708984 23.68477630615234 72.03279876708984 C 22.30706405639648 72.03279876708984 20.9442253112793 71.66574096679688 19.74358749389648 70.9713134765625 C 17.35060119628906 69.58901214599609 15.87929916381836 67.11257171630859 15.80974960327148 64.34794616699219 L 15.80447387695312 64.13234710693359 C 15.76418685913086 62.52563858032227 14.47150039672852 61.23358917236328 12.86161041259766 61.1932373046875 L 12.65142822265625 61.18806457519531 C 9.884552001953125 61.11837387084961 7.408439636230469 59.6473503112793 6.025352478027344 57.25299835205078 C 4.642715454101562 54.85950088500977 4.604759216308594 51.9801025390625 5.923866271972656 49.55063629150391 L 5.928199768066406 49.54264831542969 L 5.932571411132812 49.53468704223633 L 6.035552978515625 49.34706115722656 C 6.798110961914062 47.93782043457031 6.326408386230469 46.17910766601562 4.960517883300781 45.33897399902344 L 4.771034240722656 45.22353744506836 L 4.765914916992188 45.22041320800781 L 4.760810852050781 45.21728515625 C 2.405914306640625 43.77289962768555 1 41.26176071166992 1 38.5 C 1 36.59735107421875 1.66741943359375 34.81351852416992 2.852928161621094 33.41531753540039 L 2.852928161621094 31.19168853759766 L 5.547073364257812 31.19118118286133 C 6.447883605957031 30.26479339599609 6.677291870117188 28.83108139038086 6.033065795898438 27.64535140991211 L 5.925827026367188 27.44739532470703 C 4.605979919433594 25.01726531982422 4.643806457519531 22.13748168945312 6.027374267578125 19.74381256103516 C 7.411064147949219 17.3499641418457 9.887290954589844 15.87928771972656 12.65129852294922 15.80974960327148 L 12.86254119873047 15.80451202392578 C 14.47269821166992 15.76448822021484 15.76567459106445 14.47213745117188 15.80601119995117 12.86235046386719 L 15.81121063232422 12.65335083007812 C 15.88076400756836 9.886528015136719 17.35207366943359 7.409515380859375 19.74698638916016 6.026100158691406 C 20.94602584838867 5.332588195800781 22.30901336669922 4.965423583984375 23.68667602539062 4.965423583984375 C 24.99287414550781 4.965423583984375 26.29452514648438 5.297653198242188 27.45092391967773 5.926200866699219 L 27.6478385925293 6.033203125 C 28.09719848632812 6.277565002441406 28.57996368408203 6.401176452636719 29.0837516784668 6.401176452636719 C 30.14396667480469 6.401176452636719 31.1076774597168 5.862213134765625 31.66231536865234 4.959152221679688 L 31.77938842773438 4.767448425292969 C 33.22483825683594 2.4068603515625 35.73627471923828 1 38.5 1 Z M 47.91776275634766 17.37862396240234 C 45.56489944458008 17.37862396240234 43.23088836669922 16.77992630004883 41.16803741455078 15.64726257324219 C 40.20495986938477 15.11845779418945 39.30964279174805 14.47735977172852 38.50018692016602 13.74123764038086 C 37.69103622436523 14.4771614074707 36.79601669311523 15.11822891235352 35.83349990844727 15.64690017700195 C 33.77073669433594 16.77989959716797 31.43656158447266 17.37877655029297 29.08333587646484 17.37877655029297 C 28.08742523193359 17.37877655029297 27.09348678588867 17.27042770385742 26.12151336669922 17.05881881713867 C 24.7481575012207 21.35776138305664 21.36063003540039 24.74630355834961 17.06239318847656 26.12010955810547 C 18.02146148681641 30.5297737121582 16.78054809570312 35.16097640991211 13.74483489990234 38.50004959106445 C 16.77959823608398 41.83868789672852 18.02040100097656 46.46950531005859 17.0623664855957 50.8785400390625 C 21.36067962646484 52.25267791748047 24.74843215942383 55.64170837402344 26.12128448486328 59.9402961730957 C 27.09307098388672 59.72879791259766 28.08688735961914 59.62052536010742 29.0827751159668 59.62052536010742 C 31.43578720092773 59.62052536010742 33.76983642578125 60.21933746337891 35.83259963989258 61.35222625732422 C 36.79572296142578 61.88117980957031 37.69096755981445 62.52239227294922 38.50045013427734 63.25877380371094 C 39.30967712402344 62.52310562133789 40.20485305786133 61.88214492797852 41.16775131225586 61.35343933105469 C 43.23061370849609 60.22074890136719 45.56471252441406 59.62204742431641 47.9177131652832 59.62204742431641 C 48.91323852539062 59.62204742431641 49.90671920776367 59.73027801513672 50.87831878662109 59.94168090820312 C 52.25166320800781 55.64273834228516 55.63935089111328 52.25369262695312 59.93759918212891 50.87989044189453 C 58.97853088378906 46.47022247314453 60.21978759765625 41.83864593505859 63.25550079345703 38.49957275390625 C 60.22074890136719 35.16094207763672 58.97960662841797 30.52973937988281 59.93762969970703 26.12070465087891 C 55.63931274414062 24.74655914306641 52.25154113769531 21.35746765136719 50.87869262695312 17.05888748168945 C 49.90703582763672 17.27035903930664 48.91339111328125 17.37862396240234 47.91776275634766 17.37862396240234 Z" stroke="none" fill="#fff"/></g><g transform="translate(-11.983 -12.539)" fill="#37bffa"><path d="M 43.38553237915039 59.57857513427734 C 42.45381164550781 59.57857513427734 41.57773208618164 59.21561431884766 40.91867065429688 58.55654525756836 L 31.34799003601074 48.9843635559082 C 30.68914985656738 48.32554244995117 30.32625007629395 47.44945526123047 30.32625007629395 46.51762390136719 C 30.32625007629395 45.58578491210938 30.68914985656738 44.70969390869141 31.34811019897461 44.05074310302734 L 35.38967132568359 40.00917434692383 C 36.03919219970703 39.35965347290039 36.93833160400391 38.98714447021484 37.85654067993164 38.98714447021484 C 38.7747688293457 38.98714447021484 39.67391204833984 39.35966491699219 40.32342147827148 40.00919342041016 L 42.78631210327148 42.47208023071289 L 50.09577178955078 33.74857330322266 C 50.7596321105957 32.95549392700195 51.7347412109375 32.50020217895508 52.77043914794922 32.50020217895508 C 53.5873908996582 32.50020217895508 54.38261032104492 32.78924560546875 55.00960159301758 33.3140754699707 L 59.3917121887207 36.98731231689453 C 60.09368133544922 37.57372283935547 60.54454040527344 38.43674468994141 60.62610244750977 39.35292434692383 C 60.70875930786133 40.28147506713867 60.42436981201172 41.18661499023438 59.82530975341797 41.90160369873047 L 46.05978012084961 58.33077239990234 C 45.43522262573242 59.07501983642578 44.5245361328125 59.52705383300781 43.55742645263672 59.57429504394531 C 43.48149490356445 59.57857513427734 43.42030715942383 59.57857513427734 43.38553237915039 59.57857513427734 Z" stroke="none"/><path d="M 52.77044296264648 34.50020217895508 C 52.34521865844727 34.50019073486328 51.9231071472168 34.68143081665039 51.62876129150391 35.03307342529297 L 42.91653060913086 45.43072509765625 L 38.9091796875 41.42338562011719 C 38.63002014160156 41.14421463012695 38.25110244750977 40.98714447021484 37.85654067993164 40.98714447021484 C 37.46197891235352 40.98714447021484 37.08306121826172 41.14421463012695 36.80389022827148 41.42338562011719 L 32.76231002807617 45.46497344970703 C 32.18088912963867 46.04638290405273 32.18088912963867 46.98885345458984 32.76231002807617 47.57026290893555 L 42.33288192749023 57.142333984375 C 42.61278915405273 57.42224502563477 42.9917106628418 57.57857513427734 43.38553237915039 57.57857513427734 C 43.40711212158203 57.57857513427734 43.42943954467773 57.57857513427734 43.45103073120117 57.57708358764648 C 43.86867141723633 57.5592155456543 44.25876235961914 57.36566543579102 44.52676010131836 57.04629516601562 L 58.29228210449219 40.61715316772461 C 58.5461311340332 40.31416320800781 58.66897201538086 39.92333221435547 58.63397979736328 39.53026580810547 C 58.59899139404297 39.13720321655273 58.4099006652832 38.77316284179688 58.10691070556641 38.52005386352539 L 53.72586059570312 34.84770584106445 C 53.44695281982422 34.61424255371094 53.10771179199219 34.50021362304688 52.77044296264648 34.50020217895508 M 43.28950119018555 53.88613510131836 L 35.92098999023438 46.51687240600586 L 37.85729217529297 44.58131408691406 L 41.96141052246094 48.68544387817383 C 42.2413215637207 48.96464538574219 42.62211608886719 49.12166595458984 43.01387786865234 49.12166595458984 C 43.0357666015625 49.12166595458984 43.0576286315918 49.12117767333984 43.07957077026367 49.12019348144531 C 43.49720001220703 49.10233306884766 43.88727951049805 48.90877532958984 44.15528869628906 48.58940505981445 L 52.95537185668945 38.08678436279297 L 55.05469131469727 39.84516525268555 L 43.28950119018555 53.88613510131836 M 52.77040100097656 30.50020217895508 L 52.77046203613281 30.50020217895508 L 52.7705192565918 30.50020217895508 C 54.05599212646484 30.500244140625 55.30707168579102 30.95490264892578 56.29331207275391 31.78042221069336 L 60.67378234863281 35.45229721069336 C 61.78137969970703 36.37866973876953 62.49003601074219 37.73556137084961 62.61822128295898 39.17558288574219 C 62.74829864501953 40.63680267333984 62.30088043212891 42.06106567382812 61.35839080810547 43.18599319458008 L 47.59278869628906 59.615234375 C 46.61153030395508 60.78458786010742 45.18148803710938 61.49529266357422 43.66215515136719 61.57155609130859 C 43.53337097167969 61.57857513427734 43.432373046875 61.57857513427734 43.38553237915039 61.57857513427734 C 41.91958999633789 61.57857513427734 40.5412712097168 61.00757598876953 39.50445175170898 59.97076416015625 L 29.93366241455078 50.39847564697266 C 28.89719009399414 49.36201477050781 28.32624053955078 47.98368453979492 28.32624053955078 46.51761245727539 C 28.32624053955078 45.05155563354492 28.89719009399414 43.67322540283203 29.93391036987305 42.63652420043945 L 33.97546005249023 38.59496307373047 C 35.01227951049805 37.55814361572266 36.39060211181641 36.98714447021484 37.85654067993164 36.98714447021484 C 39.322509765625 36.98714447021484 40.70085144042969 37.55816268920898 41.7376594543457 38.59500503540039 L 42.65609359741211 39.51343536376953 L 48.56278228759766 32.46407318115234 C 49.60705184936523 31.216552734375 51.14113235473633 30.50020217895508 52.77040100097656 30.50020217895508 Z" stroke="none" fill="#fff"/></g><g transform="translate(-8.833 -8.833)" fill="#37bffa"><path d="M 42.33333206176758 66.66666412353516 C 28.91589164733887 66.66666412353516 18.00000190734863 55.75077056884766 18.00000190734863 42.33333206176758 C 18.00000190734863 28.91589164733887 28.91589164733887 18.00000190734863 42.33333206176758 18.00000190734863 C 55.75077056884766 18.00000190734863 66.66666412353516 28.91589164733887 66.66666412353516 42.33333206176758 C 66.66666412353516 55.75077056884766 55.75077056884766 66.66666412353516 42.33333206176758 66.66666412353516 Z M 42.33333206176758 24.97778129577637 C 32.76345062255859 24.97778129577637 24.97778129577637 32.76345062255859 24.97778129577637 42.33333206176758 C 24.97778129577637 51.90322113037109 32.76345062255859 59.68889236450195 42.33333206176758 59.68889236450195 C 51.90322113037109 59.68889236450195 59.68889236450195 51.90322113037109 59.68889236450195 42.33333206176758 C 59.68889236450195 32.76345062255859 51.90322113037109 24.97778129577637 42.33333206176758 24.97778129577637 Z" stroke="none"/><path d="M 42.33333206176758 20 C 30.01873016357422 20 20 30.01873016357422 20 42.33333206176758 C 20 54.64793395996094 30.01873016357422 64.66666412353516 42.33333206176758 64.66666412353516 C 54.64793395996094 64.66666412353516 64.66666412353516 54.64793395996094 64.66666412353516 42.33333206176758 C 64.66666412353516 30.01873016357422 54.64793395996094 20 42.33333206176758 20 M 42.33333206176758 61.68889236450195 C 31.66023254394531 61.68889236450195 22.9777717590332 53.00569152832031 22.9777717590332 42.33333206176758 C 22.9777717590332 31.66098022460938 31.66023254394531 22.9777717590332 42.33333206176758 22.9777717590332 C 53.00643157958984 22.9777717590332 61.68889236450195 31.66098022460938 61.68889236450195 42.33333206176758 C 61.68889236450195 53.00569152832031 53.00643157958984 61.68889236450195 42.33333206176758 61.68889236450195 M 42.33333206176758 16 C 56.85358428955078 16 68.66666412353516 27.81308364868164 68.66666412353516 42.33333206176758 C 68.66666412353516 56.85358428955078 56.85358428955078 68.66666412353516 42.33333206176758 68.66666412353516 C 27.81308364868164 68.66666412353516 16 56.85358428955078 16 42.33333206176758 C 16 27.81308364868164 27.81308364868164 16 42.33333206176758 16 Z M 42.33333206176758 57.68889236450195 C 50.80041122436523 57.68889236450195 57.68889236450195 50.80041122436523 57.68889236450195 42.33333206176758 C 57.68889236450195 33.86625289916992 50.80041122436523 26.9777717590332 42.33333206176758 26.9777717590332 C 33.86625289916992 26.9777717590332 26.9777717590332 33.86625289916992 26.9777717590332 42.33333206176758 C 26.9777717590332 50.80041122436523 33.86625289916992 57.68889236450195 42.33333206176758 57.68889236450195 Z" stroke="none" fill="#fff"/></g></g></g></g></svg>