<svg xmlns="http://www.w3.org/2000/svg" xmlns:xlink="http://www.w3.org/1999/xlink" width="55" height="55" viewBox="0 0 55 55">
  <defs>
    <clipPath id="clip-path">
      <rect id="Rectángulo_10" data-name="Rectángulo 10" width="55" height="55"/>
    </clipPath>
  </defs>
  <g id="Web_1920_3" data-name="Web 1920 – 3" clip-path="url(#clip-path)">
    <rect id="Rectángulo_9" data-name="Rectángulo 9" width="55" height="55" fill="#fff"/>
    <path id="planning" d="M51,5.228a4.228,4.228,0,0,0-7.217-2.989L34.871,11.15v-3.7H1V51H34.871V23.111L49.761,8.217A4.2,4.2,0,0,0,51,5.228Zm-25.806,36.9a.806.806,0,1,1-.806-.806A.806.806,0,0,1,25.194,42.129Zm-6.447-7.258V25.194h6.539a2.188,2.188,0,0,0,2.007,1.6L22.78,31.311l-1.85-1.85L19.789,30.6l2.989,2.989,6.215-6.215-.739-.739,1.781-.594v8.829Zm8.829-9.708a.582.582,0,0,1-.736-.736l1.13-3.387,2.993,2.993Zm1.181-5.616L38.909,9.4l1.279,1.28L30.038,20.827Zm3.7,3.7-1.279-1.28L41.327,11.816l1.279,1.28Zm7.592-15,1.28-1.28,3.7,3.7-1.279,1.28Zm-6.79,41.136H2.613V9.065H33.258v3.7l-6.35,6.35-1.49,4.468H17.129v12.9h6.447v3.375a2.417,2.417,0,0,0-1.464,1.464H12.29V38.1H9.067V33.258H12.29V25.194H9.067V20.355H12.29V17.132h3.223v3.223h8.065V12.29H15.516v3.223H12.293V12.29H4.223v8.065H7.447v4.839H4.223v8.065H7.447V38.1H4.223v8.065H12.29V42.94h9.825A2.413,2.413,0,1,0,25.2,39.857V36.484h6.447V25.505l1.242-.42.371-.371ZM10.677,39.71v4.839H5.839V39.71Zm0-12.9v4.839H5.839V26.807ZM5.839,18.742V13.9h4.838v4.839Zm11.29,0V13.9h4.839v4.839ZM48.622,7.078,46.161,9.537l-3.7-3.7,2.461-2.457a2.615,2.615,0,0,1,3.7,3.7Z" transform="translate(1.7 1.954)" fill="#d7d7d7"/>
  </g>
</svg>
