<svg xmlns="http://www.w3.org/2000/svg" width="200" height="200" viewBox="0 0 200 200"><g transform="translate(-1003 -422)"><path d="M0,0H200V200H0Z" transform="translate(1003 422)" fill="none"/><g transform="translate(1020.837 459.621)"><path d="M108.118,272.7a2.183,2.183,0,0,0-2.177,2.177,1.664,1.664,0,0,1-1.7,1.589,1.643,1.643,0,0,1-1.589-1.589,2.177,2.177,0,1,0-4.354,0,6,6,0,0,0,12,0A2.183,2.183,0,0,0,108.118,272.7Z" transform="translate(-85.085 -225.066)" fill="#37bffa"/><path d="M244.819,272.7a2.183,2.183,0,0,0-2.177,2.177,1.664,1.664,0,0,1-1.7,1.589,1.643,1.643,0,0,1-1.589-1.589,2.177,2.177,0,0,0-4.354,0,6,6,0,0,0,12,0A2.17,2.17,0,0,0,244.819,272.7Z" transform="translate(-192.025 -225.066)" fill="#37bffa"/><path d="M394.548,308.365a121.131,121.131,0,0,0-51.466,0C334.94,310.411,331,313.046,331,316.42s3.875,5.66,12.213,7.206a175.988,175.988,0,0,0,51.2,0c8.338-1.524,12.213-3.832,12.213-7.206S402.669,310.411,394.548,308.365Z" transform="translate(-267.125 -250.803)" fill="#37bffa"/><path d="M202.207,134.124c-1.219-4.746-4.92-7.859-10.711-9.057a26.417,26.417,0,0,0-5.225-.522c.348-4.2.283-6.88.283-7.01-.022-3.418-2.612-8.273-14.739-12.1-8.708-2.765-20.268-4.267-32.525-4.267a137.931,137.931,0,0,0-17.656,1.11V66.962A13.073,13.073,0,0,0,108.572,53.9H39.777A2.183,2.183,0,0,0,37.6,56.077V153.74a2.183,2.183,0,0,0,2.177,2.177h6.814v7.25a2.183,2.183,0,0,0,2.177,2.177,2.226,2.226,0,0,0,1.7-.805l3.07-3.766,3.07,3.766a2.187,2.187,0,0,0,3.875-1.393V155.9H100.6a49.45,49.45,0,0,0,8.36,11.821c7.816,7.99,18.026,12.039,30.3,12.039,15.174,0,27.039-6.118,35.29-18.157,4.136-.37,18.527-2.242,25.145-11.168C203.013,145.968,203.862,140.46,202.207,134.124ZM117.258,66.962v35.965c-2.438.414-4.79.914-6.988,1.48V58.428A8.714,8.714,0,0,1,117.258,66.962Zm-75.326,84.6V58.254h59.934v48.962c-7.99,3.462-9.862,7.4-9.884,10.3a94.358,94.358,0,0,0,1.829,18.265,80.251,80.251,0,0,0,4.746,15.784Zm154.288-3.7c-6.357,8.621-22.794,9.492-22.946,9.492h-.152c-.022,0-.109.022-.152.022h-.044c-.044.022-.109.022-.152.044h-.044c-.044.022-.109.044-.152.065l-.044.022c-.044.022-.109.044-.152.065l-.044.022a.455.455,0,0,0-.131.087l-.044.022-.131.087-.044.044c-.044.044-.087.065-.109.109l-.044.044a.577.577,0,0,0-.109.131l-.022.044a.662.662,0,0,0-.109.152v.022c-7.4,11.342-18.266,17.09-32.242,17.09-11.059,0-20.2-3.614-27.17-10.711-8.425-8.578-12.257-20.856-14-29.63a90.107,90.107,0,0,1-1.763-17.438V117.6c0-5.029,16.328-12.061,42.932-12.061s42.932,7.032,42.932,12.061v.044a81.957,81.957,0,0,1-.5,8.969v.588c0,.044.022.087.022.131s.022.065.022.087l.044.109c0,.044.022.065.044.109.022.022.022.065.044.087.022.044.022.065.044.109l.044.087c.022.044.044.065.065.109l.044.087.065.087a352.986,352.986,0,0,0,.131.174c.022.022.044.065.065.087l.065.065.087.087.065.044.109.087.065.044.109.065.065.044.109.044.109.044.109.022c.044.022.087.022.131.044l.087.022.152.022h.544c.109-.022,11.908-1.328,13.868,6.2C199.333,140.307,198.724,144.444,196.22,147.862Z" transform="translate(-37.6 -53.9)" fill="#37bffa"/><path d="M686.288,415.024a18.471,18.471,0,0,0-4.9.131h-.022l-.152.044-.065.022-.131.044-.087.022-.087.044-.109.044-.065.044-.109.087-.044.044-.109.087c-.022.022-.044.044-.065.044l-.087.087a.3.3,0,0,0-.065.087l-.065.065-.087.109-.044.065c-.022.044-.044.065-.065.109a.167.167,0,0,1-.044.065c-.022.022-.022.065-.044.087l-.044.109c0,.022-.022.044-.022.087a.31.31,0,0,0-.044.131.08.08,0,0,1-.022.065c-.022.022-.022.109-.043.152v.022a77.672,77.672,0,0,1-3.9,13.781c0,.022,0,.022-.022.044a2.26,2.26,0,0,0-.152.762,2.17,2.17,0,0,0,2.133,2.221h.24a30.8,30.8,0,0,0,5.094-.479c4.071-.762,7.032-2.264,8.817-4.485,1.241-1.546,2.482-4.223,1.459-8.295C692.558,417.4,690.054,415.482,686.288,415.024ZM688.465,426c-1.546,1.938-4.855,2.787-7.511,3.135a81.041,81.041,0,0,0,2.656-9.84c1.851-.109,4.964.065,5.486,2.2A4.89,4.89,0,0,1,688.465,426Z" transform="translate(-536.703 -336.324)" fill="#37bffa"/><path d="M394.318,469.2a2.183,2.183,0,0,0-2.177,2.177,1.664,1.664,0,0,1-1.7,1.589,1.643,1.643,0,0,1-1.589-1.589,2.177,2.177,0,0,0-4.354,0,6,6,0,0,0,12,0A2.169,2.169,0,0,0,394.318,469.2Z" transform="translate(-308.978 -378.787)" fill="#37bffa"/><path d="M531.119,469.2a2.183,2.183,0,0,0-2.177,2.177,1.664,1.664,0,0,1-1.7,1.589,1.643,1.643,0,0,1-1.589-1.589,2.177,2.177,0,0,0-4.354,0,6,6,0,0,0,12,0A2.183,2.183,0,0,0,531.119,469.2Z" transform="translate(-415.996 -378.787)" fill="#37bffa"/><path d="M548.8,141.76a2.168,2.168,0,0,0,0,3.07,2.138,2.138,0,0,0,1.546.631,2.23,2.23,0,0,0,1.546-.631,7.621,7.621,0,0,0,0-10.755,3.259,3.259,0,0,1,0-4.594,2.171,2.171,0,0,0-3.07-3.07,7.621,7.621,0,0,0,0,10.755A3.279,3.279,0,0,1,548.8,141.76Z" transform="translate(-435.788 -110.127)" fill="#37bffa"/><path d="M453.5,141.76a2.168,2.168,0,0,0,0,3.07,2.138,2.138,0,0,0,1.546.631,2.23,2.23,0,0,0,1.546-.631,7.621,7.621,0,0,0,0-10.755,3.259,3.259,0,0,1,0-4.594,2.171,2.171,0,1,0-3.07-3.07,7.621,7.621,0,0,0,0,10.755A3.279,3.279,0,0,1,453.5,141.76Z" transform="translate(-361.235 -110.127)" fill="#37bffa"/><path d="M498.255,120.23a7.011,7.011,0,0,1,0,5.312,6.727,6.727,0,0,1-1.546,2.308,2.168,2.168,0,0,0,0,3.07,2.138,2.138,0,0,0,1.546.631,2.23,2.23,0,0,0,1.546-.631,11.405,11.405,0,0,0,0-16.11,7.286,7.286,0,0,1-1.546-2.308,7.013,7.013,0,0,1,0-5.312,6.728,6.728,0,0,1,1.546-2.308,2.171,2.171,0,1,0-3.07-3.07,11.405,11.405,0,0,0,0,16.11A7.215,7.215,0,0,1,498.255,120.23Z" transform="translate(-394.17 -90.883)" fill="#37bffa"/><path d="M457.271,519.466a20.835,20.835,0,0,1-3.9-.327,2.16,2.16,0,0,1-1.568-3.07h0a2.162,2.162,0,0,1,2.351-1.2,20.359,20.359,0,0,0,6.226,0,2.162,2.162,0,0,1,2.351,1.2h0a2.177,2.177,0,0,1-1.568,3.07A22.867,22.867,0,0,1,457.271,519.466Z" transform="translate(-361.458 -414.489)" fill="#37bffa"/><path d="M171.971,319.066a20.832,20.832,0,0,1-3.9-.327,2.16,2.16,0,0,1-1.567-3.07h0a2.162,2.162,0,0,1,2.351-1.2,20.356,20.356,0,0,0,6.226,0,2.162,2.162,0,0,1,2.351,1.2h0a2.176,2.176,0,0,1-1.567,3.07A20.833,20.833,0,0,1,171.971,319.066Z" transform="translate(-138.27 -257.717)" fill="#37bffa"/></g></g></svg>