<svg xmlns="http://www.w3.org/2000/svg" width="200" height="200" viewBox="0 0 200 200"><g transform="translate(-860 -382)"><g transform="translate(-121.238 7.491)"><path d="M130.136,62.993l-.373-.227a13.479,13.479,0,0,1-4.8-17.931l.209-.38a7.451,7.451,0,0,0-6.359-11.006l-.408-.01A13.474,13.474,0,0,1,105.259,20.3l-.01-.409A7.452,7.452,0,0,0,94.24,13.532l-.376.2A13.481,13.481,0,0,1,75.927,8.929L75.7,8.561a7.45,7.45,0,0,0-12.706,0l-.229.375a13.479,13.479,0,0,1-17.933,4.8l-.379-.206a7.451,7.451,0,0,0-11.008,6.362l-.01.4a13.472,13.472,0,0,1-13.144,13.14l-.4.01a7.451,7.451,0,0,0-6.359,11.008l.2.378a13.48,13.48,0,0,1-4.8,17.933l-.375.229a0,0,0,0,0,0,0,7.452,7.452,0,0,0,0,12.708l.373.227a13.479,13.479,0,0,1,4.8,17.931l-.209.38a7.451,7.451,0,0,0,6.359,11.006l.408.01a13.474,13.474,0,0,1,13.141,13.138l.01.409a7.452,7.452,0,0,0,11.009,6.359l.376-.2a13.479,13.479,0,0,1,17.937,4.807l.226.369a7.45,7.45,0,0,0,12.706,0l.229-.375a13.479,13.479,0,0,1,17.933-4.8l.379.206a7.451,7.451,0,0,0,11.008-6.362l.01-.4a13.472,13.472,0,0,1,13.144-13.14l.4-.01a7.451,7.451,0,0,0,6.359-11.008l-.2-.377a13.48,13.48,0,0,1,4.8-17.933l.376-.23a7.452,7.452,0,0,0,0-12.708Zm-2.987,7.829-.376.23a19.2,19.2,0,0,0-6.839,25.541l.2.377a1.73,1.73,0,0,1-1.48,2.558l-.4.01a19.189,19.189,0,0,0-18.716,18.718l-.01.4a1.731,1.731,0,0,1-2.555,1.48l-.379-.206a19.2,19.2,0,0,0-25.543,6.839l-.23.375a1.73,1.73,0,0,1-2.953-.007l-.227-.369A19.189,19.189,0,0,0,42.1,119.933l-.376.2a1.733,1.733,0,0,1-2.558-1.477l-.01-.408A19.188,19.188,0,0,0,20.44,99.537l-.408-.01a1.732,1.732,0,0,1-1.481-2.552l.209-.38a19.2,19.2,0,0,0-6.841-25.543l-.373-.227a1.733,1.733,0,0,1,0-2.954l.375-.229A19.2,19.2,0,0,0,18.76,42.1l-.2-.377a1.73,1.73,0,0,1,1.48-2.558l.4-.01A19.189,19.189,0,0,0,39.155,20.436l.01-.4a1.731,1.731,0,0,1,2.555-1.48l.379.206a19.2,19.2,0,0,0,25.543-6.839l.23-.375a1.73,1.73,0,0,1,2.953.007l.227.369A19.2,19.2,0,0,0,96.6,18.759l.376-.2a1.733,1.733,0,0,1,2.558,1.477l.01.408a19.188,19.188,0,0,0,18.713,18.716l.408.01a1.732,1.732,0,0,1,1.481,2.552l-.209.38a19.2,19.2,0,0,0,6.841,25.543l.373.227a1.734,1.734,0,0,1,0,2.954Z" transform="translate(1011.964 412.896)" fill="#37bffa"/><path d="M73.431,35.168a2.859,2.859,0,0,0-4.028.356L52.668,55.5l-7.7-7.7a2.858,2.858,0,0,0-4.044,0l-7.763,7.763a2.859,2.859,0,0,0,0,4.044L51.547,77.991a2.86,2.86,0,0,0,2.022.838c.041,0,.084,0,.126,0a2.858,2.858,0,0,0,2.066-1.02L82.2,46.25a2.859,2.859,0,0,0-.356-4.028ZM53.384,71.737,39.231,57.582l3.719-3.718,7.883,7.883a2.86,2.86,0,0,0,4.214-.184l16.9-20.173,4.032,3.377Z" transform="translate(1023.712 425.579)" fill="#37bffa"/><path d="M62.9,20a42.9,42.9,0,1,0,42.9,42.9A42.946,42.946,0,0,0,62.9,20Zm0,80.076A37.178,37.178,0,1,1,100.076,62.9,37.22,37.22,0,0,1,62.9,100.076Z" transform="translate(1018.413 419.345)" fill="#37bffa"/><path d="M36.555,48.969a16.326,16.326,0,0,1,9.675,9.675,2.479,2.479,0,0,0,4.652,0,16.326,16.326,0,0,1,9.675-9.675,2.479,2.479,0,0,0,0-4.652,16.286,16.286,0,0,1-9.663-9.663,2.479,2.479,0,0,0-4.652,0,16.286,16.286,0,0,1-9.663,9.663,2.486,2.486,0,0,0-.025,4.652ZM48.544,40.9a21.124,21.124,0,0,0,5.741,5.741,21.124,21.124,0,0,0-5.741,5.741A21.124,21.124,0,0,0,42.8,46.643,21.124,21.124,0,0,0,48.544,40.9ZM156.758,68.527A16.273,16.273,0,0,1,166.42,78.2a2.479,2.479,0,0,0,4.652,0,16.338,16.338,0,0,1,9.663-9.675,2.479,2.479,0,0,0,0-4.652,16.286,16.286,0,0,1-9.663-9.663,2.479,2.479,0,0,0-4.652,0,16.286,16.286,0,0,1-9.663,9.663,2.479,2.479,0,0,0,0,4.652Zm11.988-8.067a21.124,21.124,0,0,0,5.741,5.741,21.124,21.124,0,0,0-5.741,5.741,21.124,21.124,0,0,0-5.741-5.741A21.124,21.124,0,0,0,168.746,60.46Z" transform="translate(982.812 370.193)" fill="#37bffa"/><path d="M29.261,43.031a13.316,13.316,0,0,1,7.891,7.891,2.022,2.022,0,0,0,3.794,0,13.316,13.316,0,0,1,7.891-7.891,2.022,2.022,0,0,0,0-3.794,13.283,13.283,0,0,1-7.881-7.881,2.022,2.022,0,0,0-3.794,0,13.283,13.283,0,0,1-7.881,7.881,2.028,2.028,0,0,0-.02,3.794Zm9.778-6.579a17.23,17.23,0,0,0,4.682,4.682,17.23,17.23,0,0,0-4.682,4.682,17.23,17.23,0,0,0-4.682-4.682A17.23,17.23,0,0,0,39.039,36.452Z" transform="translate(969.521 422.617)" fill="#37bffa"/></g><rect width="200" height="200" transform="translate(860 382)" fill="none"/></g></svg>