<svg xmlns="http://www.w3.org/2000/svg" width="30" height="30" viewBox="0 0 30 30"><g transform="translate(-735 -792)"><rect width="30" height="30" transform="translate(735 792)" fill="none"/><g transform="translate(637.283 398.815)"><g transform="translate(104.372 398.095)"><g transform="translate(3.969 0)"><path d="M150.692,52.387h-6.221a.571.571,0,0,1-.571-.571V36.21a.559.559,0,0,1,.326-.512l6.221-2.95a.565.565,0,0,1,.811.512V51.816A.568.568,0,0,1,150.692,52.387Zm-5.65-1.137h5.084V34.162l-5.084,2.411Z" transform="translate(-143.9 -32.694)" fill="#37bffa"/></g><g transform="translate(10.191 2.175)"><path d="M286.992,98.218h-5.221a.571.571,0,0,1-.571-.571V81.271a.571.571,0,0,1,.571-.571h5.221a.571.571,0,0,1,.571.571v16.38A.573.573,0,0,1,286.992,98.218Zm-4.655-1.137h4.084V81.837h-4.084Z" transform="translate(-281.2 -80.7)" fill="#37bffa"/></g><g transform="translate(0 7.721)"><path d="M60.84,215.071H56.871a.571.571,0,0,1-.571-.571v-10.83a.571.571,0,0,1,.571-.571H60.84a.571.571,0,0,1,.571.571V214.5A.57.57,0,0,1,60.84,215.071Zm-3.4-1.137h2.832v-9.7H57.442Z" transform="translate(-56.3 -203.1)" fill="#37bffa"/></g><g transform="translate(5.954 13.431)"><path d="M190.523,335.362h-2.252a.571.571,0,0,1-.571-.571v-5.12a.571.571,0,0,1,.571-.571h2.252a.571.571,0,0,1,.571.571v5.12A.571.571,0,0,1,190.523,335.362Zm-1.686-1.137h1.115v-3.983h-1.115Z" transform="translate(-187.7 -329.1)" fill="#37bffa"/></g></g></g></g></svg>