<svg xmlns="http://www.w3.org/2000/svg" width="200" height="200" viewBox="0 0 200 200"><g transform="translate(-736 -996)"><rect width="200" height="200" transform="translate(736 996)" fill="none"/><g transform="translate(768.054 1037.421)"><g transform="translate(0 0)"><path d="M67.953,93.707a7.276,7.276,0,1,1,7.238-7.238,7.251,7.251,0,0,1-7.238,7.238Zm65.29-8.076-44.187-72.3a36.608,36.608,0,0,0-8.533-9.218A20.882,20.882,0,0,0,67.953,0,21.281,21.281,0,0,0,55.306,4.114a37.776,37.776,0,0,0-8.456,9.218L2.434,86.012A22.211,22.211,0,0,0,3.12,107.5a19.769,19.769,0,0,0,16.761,9.6h96.069a19.672,19.672,0,0,0,16.761-9.6,22.157,22.157,0,0,0,.533-21.865ZM67.953,71.918c-2.666,0-4.571-2.209-4.876-4.876L60.639,45.177c-.381-3.733,3.581-7.238,7.314-7.238s7.695,3.5,7.238,7.238L72.753,67.042A5,5,0,0,1,67.953,71.918Z" transform="translate(0 0)" fill="none" stroke="#37bffa" stroke-width="6" fill-rule="evenodd"/></g></g></g></svg>