<svg xmlns="http://www.w3.org/2000/svg" width="290" height="270" viewBox="0 0 290 270"><g transform="translate(-72.5 -76.5)"><path d="M208.145,426.354a85.6,85.6,0,0,1-64.654-47.513,5.944,5.944,0,0,0-8.037-2.763,6.011,6.011,0,0,0-2.759,8.049,97.692,97.692,0,0,0,73.711,54.18,4.531,4.531,0,0,0,.9.06,6.038,6.038,0,0,0,.84-12.013Z" transform="translate(-23.849 -119.378)" fill="#a3e3ff"/><path d="M129.527,309.6a84.261,84.261,0,0,1,2.339-33.758,6,6,0,1,0-11.575-3.184,98.026,98.026,0,0,0-2.639,38.5,6.056,6.056,0,0,0,5.938,5.226,3.415,3.415,0,0,0,.78-.06A6.05,6.05,0,0,0,129.527,309.6Z" transform="translate(-17.742 -76.564)" fill="#a3e3ff"/><path d="M372.217,179.985l-110.9,111a6.015,6.015,0,0,1-8.217,0L212.68,250.5a14.609,14.609,0,0,0-20.632,0,14.553,14.553,0,0,0,0,20.6l54.7,55.021a14.609,14.609,0,0,0,20.632,0l125.35-125.6a14.515,14.515,0,1,0-20.512-20.543Zm6.118,23.967L316.679,264.5a6,6,0,0,1-4.2,1.742,5.849,5.849,0,0,1-4.258-1.8,5.988,5.988,0,0,1,.06-8.469l61.656-60.547a5.984,5.984,0,0,1,8.4,8.529Z" transform="translate(-46.137 -39.634)" fill="#32befa"/><path d="M248.395,182.93a49.855,49.855,0,0,1,13.495-13.515A49.855,49.855,0,0,1,248.395,155.9,49.855,49.855,0,0,1,234.9,169.415,48.224,48.224,0,0,1,248.395,182.93Z" transform="translate(-64.999 -31.707)" fill="#32befa"/><path d="M182.844,224.564,219.13,260.9,298.418,181.5a112.068,112.068,0,0,0-26.389-27.871,35.91,35.91,0,0,0-2.339,5.106,5.833,5.833,0,0,1-5.458,3.844,5.75,5.75,0,0,1-5.458-3.844,38.381,38.381,0,0,0-22.731-22.765,5.312,5.312,0,0,1-1.02-.481,113.031,113.031,0,0,0-30.048-4.085c-2.639,0-5.218.12-7.8.3a38.433,38.433,0,0,0,22.611,22.525,5.841,5.841,0,0,1,3.838,5.466,5.758,5.758,0,0,1-3.838,5.466,38.382,38.382,0,0,0-22.731,22.765,5.833,5.833,0,0,1-5.458,3.844,5.751,5.751,0,0,1-5.458-3.844,38.381,38.381,0,0,0-22.731-22.765,5.827,5.827,0,0,1,.06-10.932,38.341,38.341,0,0,0,22.071-21.083A112.663,112.663,0,0,0,92.7,243.965c0,62.049,50.38,112.505,112.335,112.505s112.335-50.456,112.335-112.505c0-2.283-.06-4.565-.24-6.848l-79.588,79.588a26.068,26.068,0,0,1-18.533,7.689h0a25.878,25.878,0,0,1-18.533-7.749l-54.638-55.021a26.186,26.186,0,1,1,37.005-37.061Zm-68.913,37.181a6.056,6.056,0,0,1-5.938-5.226,98.026,98.026,0,0,1,2.639-38.5,6,6,0,1,1,11.575,3.184,86.477,86.477,0,0,0-2.339,33.758,5.973,5.973,0,0,1-5.158,6.727C114.411,261.685,114.171,261.745,113.932,261.745Zm83.487,73.942a5.95,5.95,0,0,1-5.938,5.106,4.533,4.533,0,0,1-.9-.06,97.692,97.692,0,0,1-73.711-54.18,6.01,6.01,0,1,1,10.8-5.286,85.6,85.6,0,0,0,64.654,47.513A6.114,6.114,0,0,1,197.419,335.687Z" transform="translate(-8.085 -21.923)" fill="#32befa"/><path d="M369.695,134.43a49.856,49.856,0,0,1,13.495-13.515A49.856,49.856,0,0,1,369.695,107.4,49.854,49.854,0,0,1,356.2,120.915,49.024,49.024,0,0,1,369.695,134.43Z" transform="translate(-113.547 -12.339)" fill="#32befa"/><path d="M317.8,132.122,298.97,150.983a127.373,127.373,0,0,0-27.709-28.772,37.893,37.893,0,0,1,13.075-8.169,5.841,5.841,0,0,0,3.838-5.466,5.758,5.758,0,0,0-3.838-5.466,38.381,38.381,0,0,1-22.731-22.765,5.833,5.833,0,0,0-5.458-3.844,5.751,5.751,0,0,0-5.458,3.844,38.312,38.312,0,0,1-20.212,21.744,124.028,124.028,0,0,0-33.647-4.625C128.278,97.463,72.5,153.325,72.5,221.982S128.278,346.5,196.831,346.5s124.331-55.862,124.331-124.518A124.7,124.7,0,0,0,319.9,204.2l34.906-34.959A26.208,26.208,0,0,0,317.8,132.122ZM137.694,239.761l54.638,55.021a26.125,26.125,0,0,0,18.533,7.749h0a26.276,26.276,0,0,0,18.533-7.689l79.528-79.649c.12,2.283.24,4.505.24,6.848,0,62.049-50.38,112.505-112.335,112.505S84.5,284.091,84.5,222.042a112.711,112.711,0,0,1,92.843-110.823A38.169,38.169,0,0,1,155.267,132.3a5.841,5.841,0,0,0-3.838,5.466,5.7,5.7,0,0,0,3.779,5.466A38.381,38.381,0,0,1,177.938,166a5.833,5.833,0,0,0,5.458,3.844A5.751,5.751,0,0,0,188.854,166a38.381,38.381,0,0,1,22.731-22.765,5.841,5.841,0,0,0,3.838-5.466,5.758,5.758,0,0,0-3.838-5.466,38.116,38.116,0,0,1-22.611-22.525c2.579-.18,5.158-.3,7.8-.3a112.363,112.363,0,0,1,30.048,4.085,5.313,5.313,0,0,0,1.02.481,38.381,38.381,0,0,1,22.731,22.765,5.833,5.833,0,0,0,5.458,3.844,5.751,5.751,0,0,0,5.458-3.844,43.277,43.277,0,0,1,2.339-5.106,112.068,112.068,0,0,1,26.389,27.871l-79.169,79.408-36.286-36.34a26.229,26.229,0,0,0-37.065,37.121Zm45.7-115.568a49.855,49.855,0,0,0,13.495,13.515A49.855,49.855,0,0,0,183.4,151.223,49.855,49.855,0,0,0,169.9,137.708,49.854,49.854,0,0,0,183.4,124.193ZM256.147,95a49.856,49.856,0,0,0,13.495,13.515,49.856,49.856,0,0,0-13.495,13.515,49.855,49.855,0,0,0-13.495-13.515A49.026,49.026,0,0,0,256.147,95Zm90.444,65.953-125.35,125.6a14.609,14.609,0,0,1-20.632,0l-54.638-55.081a14.553,14.553,0,0,1,0-20.6,14.609,14.609,0,0,1,20.632,0l40.424,40.485a6.015,6.015,0,0,0,8.217,0l110.836-111a14.536,14.536,0,1,1,20.512,20.6Z" fill="#347794"/><path d="M449.165,207.252,387.509,267.8a5.985,5.985,0,1,0,8.4,8.529l61.656-60.547a5.985,5.985,0,0,0-8.4-8.529Z" transform="translate(-125.364 -51.524)" fill="#a3e3ff"/></g></svg>