<svg xmlns="http://www.w3.org/2000/svg" width="35" height="35" viewBox="0 0 35 35"><g transform="translate(-754 -1014)"><rect width="35" height="35" transform="translate(754 1014)" fill="none"/><g transform="translate(759 1014)"><g transform="translate(-2 5)"><path d="M14.506,20a1.553,1.553,0,1,1,1.545-1.545A1.548,1.548,0,0,1,14.506,20ZM28.444,18.28,19.011,2.846A7.815,7.815,0,0,0,17.189.878,4.458,4.458,0,0,0,14.506,0a4.543,4.543,0,0,0-2.7.878A8.064,8.064,0,0,0,10,2.846L.52,18.361a4.741,4.741,0,0,0,.146,4.586A4.22,4.22,0,0,0,4.244,25H24.752a4.2,4.2,0,0,0,3.578-2.049,4.73,4.73,0,0,0,.114-4.668ZM14.506,15.352a1.094,1.094,0,0,1-1.041-1.041l-.52-4.668A1.58,1.58,0,0,1,14.506,8.1a1.554,1.554,0,0,1,1.545,1.545l-.52,4.668A1.067,1.067,0,0,1,14.506,15.352Z" transform="translate(0 0)" fill="#fff" fill-rule="evenodd"/></g></g></g></svg>