<svg id="Grupo_998" data-name="Grupo 998" xmlns="http://www.w3.org/2000/svg" width="55" height="55" viewBox="0 0 55 55">
  <g id="Grupo_205" data-name="Grupo 205" transform="translate(0 0)">
    <rect id="Rectángulo_57" data-name="Rectángulo 57" width="55" height="55" fill="none"/>
  </g>
  <g id="noun_success_2414761" transform="translate(4.566 2.687)">
    <rect id="Rectángulo_91" data-name="Rectángulo 91" width="1.612" height="4.837" transform="translate(22.384 39.123)" fill="#37bffa"/>
    <rect id="Rectángulo_92" data-name="Rectángulo 92" width="1.612" height="1.612" transform="translate(41.545 19.031)" fill="#37bffa"/>
    <rect id="Rectángulo_93" data-name="Rectángulo 93" width="1.612" height="1.612" transform="translate(43.156 17.376)" fill="#37bffa"/>
    <rect id="Rectángulo_94" data-name="Rectángulo 94" width="1.612" height="1.612" transform="translate(44.768 19.031)" fill="#37bffa"/>
    <rect id="Rectángulo_95" data-name="Rectángulo 95" width="1.612" height="1.612" transform="translate(43.156 20.686)" fill="#37bffa"/>
    <rect id="Rectángulo_96" data-name="Rectángulo 96" width="1.612" height="1.612" transform="translate(0 15.721)" fill="#37bffa"/>
    <rect id="Rectángulo_97" data-name="Rectángulo 97" width="1.612" height="1.612" transform="translate(1.612 14.066)" fill="#37bffa"/>
    <rect id="Rectángulo_98" data-name="Rectángulo 98" width="1.612" height="1.612" transform="translate(3.224 15.721)" fill="#37bffa"/>
    <rect id="Rectángulo_99" data-name="Rectángulo 99" width="1.612" height="1.612" transform="translate(1.612 17.376)" fill="#37bffa"/>
    <rect id="Rectángulo_100" data-name="Rectángulo 100" width="1.612" height="1.612" transform="translate(2.418 2.418)" fill="#37bffa"/>
    <rect id="Rectángulo_101" data-name="Rectángulo 101" width="1.612" height="1.612" transform="translate(4.03 0.806)" fill="#37bffa"/>
    <rect id="Rectángulo_102" data-name="Rectángulo 102" width="1.612" height="1.612" transform="translate(5.641 2.418)" fill="#37bffa"/>
    <rect id="Rectángulo_103" data-name="Rectángulo 103" width="1.612" height="1.612" transform="translate(4.03 4.031)" fill="#37bffa"/>
    <rect id="Rectángulo_104" data-name="Rectángulo 104" width="1.612" height="1.612" transform="translate(40.739 3.224)" fill="#37bffa"/>
    <rect id="Rectángulo_105" data-name="Rectángulo 105" width="1.612" height="1.612" transform="translate(42.35 1.612)" fill="#37bffa"/>
    <rect id="Rectángulo_106" data-name="Rectángulo 106" width="1.612" height="1.612" transform="translate(43.962 3.224)" fill="#37bffa"/>
    <rect id="Rectángulo_107" data-name="Rectángulo 107" width="1.612" height="1.612" transform="translate(42.35 4.837)" fill="#37bffa"/>
    <path id="Trazado_39" data-name="Trazado 39" d="M15.762,11.236l-2.516,2.418a.784.784,0,0,0,0,1.14l8.8,8.458-.573,1.1a19.817,19.817,0,0,1-6.9,7.512l-.36.231a.8.8,0,0,0-.37.744.809.809,0,0,0,.5.667l.419.172a22.739,22.739,0,0,0,8.661,1.71c.718,0,1.436-.047,2.154-.114V37.6H23.9a.823.823,0,0,0-.839.806v5.643H15.516a.823.823,0,0,0-.839.806V51.3a.823.823,0,0,0,.839.806H42.357A.823.823,0,0,0,43.2,51.3V44.856a.823.823,0,0,0-.839-.806H34.808V38.407a.823.823,0,0,0-.839-.806H32.292V34.376h.7a16.044,16.044,0,0,1,4.9.765.879.879,0,0,0,.265.041A.823.823,0,0,0,39,34.376v-2.9a16.036,16.036,0,0,0-2.448-8.5l-.168-.265L44.625,14.8a.784.784,0,0,0,0-1.14l-2.516-2.418a.863.863,0,0,0-1.186,0l-7.549,7.255a.79.79,0,0,0-.243.567v8.061H24.743V19.061a.79.79,0,0,0-.246-.57l-7.549-7.255A.863.863,0,0,0,15.762,11.236ZM33.131,39.213v5.643a.823.823,0,0,0,.839.806h7.549V50.5H16.355V45.662H23.9a.823.823,0,0,0,.839-.806V39.213Zm1.678-19.818,6.71-6.449,1.33,1.278-8.041,7.727Zm0,11.758V24.231l.356-.342a14.473,14.473,0,0,1,2.161,7.585V33.3a17.783,17.783,0,0,0-3.858-.518l1.1-1.057A.79.79,0,0,0,34.808,31.152ZM24.743,28.734h8.388v2.085L30.86,33a.79.79,0,0,0-.246.57V37.6H27.259V33.57a.79.79,0,0,0-.246-.57l-2.271-2.182Zm.606,4.946a21.07,21.07,0,0,1-8.921-1.1,21.4,21.4,0,0,0,6.542-7.505l.1-.179v6.258a.79.79,0,0,0,.246.57ZM23.065,21.951l-8.041-7.727,1.33-1.278,6.71,6.449Z" transform="translate(-5.747 -2.508)" fill="#37bffa"/>
    <path id="Trazado_40" data-name="Trazado 40" d="M35.671,7.643V2.806a.806.806,0,0,0-1.253-.671L32.55,3.381,31.405,2.236a.806.806,0,0,0-1.14,0L29.121,3.381,27.253,2.135A.806.806,0,0,0,26,2.806V7.643a.806.806,0,0,0,.806.806h.806v3.224a3.224,3.224,0,1,0,6.447,0V8.449h.806A.806.806,0,0,0,35.671,7.643Zm-3.224,4.03a1.612,1.612,0,1,1-3.224,0V8.449h3.224Zm1.612-4.837H27.612V4.313l1.165.776a.806.806,0,0,0,1.017-.1l1.042-1.042,1.042,1.042a.806.806,0,0,0,1.017.1l1.165-.776Z" transform="translate(-7.645 -2)" fill="#37bffa"/>
    <path id="Trazado_41" data-name="Trazado 41" d="M34.253,20H27.806a.806.806,0,0,0-.57,1.376L30.46,24.6a.806.806,0,0,0,1.14,0l3.224-3.224A.806.806,0,0,0,34.253,20ZM31.03,22.891l-1.278-1.278h2.556Z" transform="translate(-7.84 -5.078)" fill="#37bffa"/>
  </g>
</svg>
