<svg xmlns="http://www.w3.org/2000/svg" width="55" height="55.001" viewBox="0 0 55 55.001"><rect width="55" height="55.001" fill="none"/><g transform="translate(6.761 1.697)"><path d="M48.424,2H8.86A.86.86,0,0,0,8,2.86V52.745a.86.86,0,0,0,.86.86H48.424a.86.86,0,0,0,.86-.86V2.86A.86.86,0,0,0,48.424,2ZM23.482,3.72H33.8v3.44H23.482ZM30.037,13.9a1.72,1.72,0,1,1-2.79,0,.86.86,0,0,0,.135-.709L26.3,8.881h4.677L29.9,13.2a.86.86,0,0,0,.135.709ZM22.622,8.881H24.53l1.095,4.377A3.4,3.4,0,0,0,25.2,14.9a3.44,3.44,0,0,0,6.881,0,3.4,3.4,0,0,0-.423-1.644l1.095-4.377h1.909a.86.86,0,0,0,.86-.86v-.86h8.6V48.445H13.161V7.161h8.6v.86A.86.86,0,0,0,22.622,8.881Zm24.943,43H9.72V3.72H21.761V5.44H12.3a.86.86,0,0,0-.86.86v43a.86.86,0,0,0,.86.86H44.984a.86.86,0,0,0,.86-.86V6.3a.86.86,0,0,0-.86-.86H35.523V3.72H47.564Z" transform="translate(-8 -2)" fill="#ccc"/><path d="M43.284,47h-8.44a.844.844,0,0,0-.844.844V51.22a.844.844,0,0,0,.844.844h8.44a.844.844,0,0,0,.844-.844V47.844A.844.844,0,0,0,43.284,47Zm-.844,3.376H35.688V48.688H42.44Z" transform="translate(-11.498 -8.216)" fill="#ccc"/><rect width="5.908" height="1.688" transform="translate(12.08 21.516)" fill="#ccc"/><rect width="1.688" height="1.688" transform="translate(19.798 21.516)" fill="#ccc"/><rect width="7.596" height="1.688" transform="translate(23.323 21.516)" fill="#ccc"/><path d="M38.844,21.44H45.6a.844.844,0,0,0,.844-.844V13.844A.844.844,0,0,0,45.6,13H38.844a.844.844,0,0,0-.844.844V20.6A.844.844,0,0,0,38.844,21.44Zm.844-6.752h5.064v5.064H39.688Z" transform="translate(-12.07 -3.504)" fill="#ccc"/><rect width="21.872" height="1.688" transform="translate(9.284 25.819)" fill="#ccc"/><rect width="21.872" height="1.688" transform="translate(9.284 30.122)" fill="#ccc"/><rect width="10.972" height="1.688" transform="translate(9.527 34.426)" fill="#ccc"/></g></svg>