<svg xmlns="http://www.w3.org/2000/svg" width="400" height="304" viewBox="0 0 400 304"><g transform="translate(-37.6 -53.9)"><path d="M145.545,285.734a5.256,5.256,0,1,1,0-10.513h40.527c-1.314-4.941-2.418-9.724-3.259-14.087a227.824,227.824,0,0,1-4.415-44.1c.053-6.991,4.573-16.505,23.864-24.863V73.9H57.5V299.19H194.22c-1.892-4.521-3.574-9.041-5.046-13.456ZM156.058,178.4a5.272,5.272,0,0,1,5.256,5.256,3.966,3.966,0,0,0,3.837,3.837,3.918,3.918,0,0,0,4.1-3.837,5.256,5.256,0,1,1,10.513,0,14.484,14.484,0,0,1-28.963,0A5.272,5.272,0,0,1,156.058,178.4ZM73.217,146.807V92.928a5.272,5.272,0,0,1,5.256-5.256H121.05a5.256,5.256,0,0,1,0,10.513H83.73v48.569a5.257,5.257,0,0,1-10.513.053Zm20.447,51.04a14.5,14.5,0,0,1-14.771-14.192,5.256,5.256,0,0,1,10.513,0,3.966,3.966,0,0,0,3.837,3.837,3.918,3.918,0,0,0,4.1-3.837,5.256,5.256,0,0,1,10.513,0A14.372,14.372,0,0,1,93.664,197.847Z" transform="translate(-9.44 -9.487)" fill="#32befa"/><path d="M388.273,95.305A21.04,21.04,0,0,0,371.4,74.7V185.716c5.309-1.367,10.933-2.576,16.873-3.574Z" transform="translate(-158.075 -9.867)" fill="#32befa"/><path d="M519.287,347.375h-1.314l-.368-.053-.21-.053a.747.747,0,0,1-.315-.105l-.263-.053-.263-.105-.263-.105-.158-.105-.263-.158-.158-.105-.263-.21-.158-.105-.21-.21-.158-.158a2424.783,2424.783,0,0,1-.473-.631l-.158-.21c-.053-.053-.053-.105-.105-.21a1.146,1.146,0,0,1-.158-.263l-.105-.21c-.053-.105-.105-.158-.105-.263-.052-.053-.052-.158-.105-.21-.053-.105-.053-.158-.105-.263l-.105-.263c0-.053-.053-.105-.053-.21s-.053-.21-.053-.315v-1.419a199.355,199.355,0,0,0,1.209-21.656v-.105c0-12.142-39.423-29.121-103.657-29.121S307.3,307.478,307.3,319.621v.105a222.67,222.67,0,0,0,4.258,42.1c4.205,21.236,13.456,50.882,33.8,71.54,16.821,17.189,38.9,25.862,65.6,25.862,33.8,0,59.976-13.877,77.848-41.263v-.053c.105-.105.158-.263.263-.368l.053-.105c.105-.105.158-.21.263-.315l.105-.105.263-.263.105-.105.315-.21.105-.053c.105-.053.21-.158.315-.21l.105-.053c.105-.053.263-.105.368-.158l.105-.053c.105-.053.263-.105.368-.158h.105c.105-.053.263-.053.368-.105h.105c.105,0,.315-.053.368-.053h.368c.421,0,40.107-2.155,55.4-22.918,6.1-8.253,7.517-18.24,4.258-30.592C548.04,344.168,519.6,347.322,519.287,347.375ZM370.478,431.9a5.326,5.326,0,0,1-4.205,2.1,5.407,5.407,0,0,1-3.154-1.051c-10.776-8.147-19.764-20.237-26.65-35.9a154.276,154.276,0,0,1-11.564-43.1,5.242,5.242,0,0,1,10.408-1.262,149.182,149.182,0,0,0,8.463,34.482,5.265,5.265,0,0,1,9.882,2.523,3.966,3.966,0,0,0,3.837,3.837,3.918,3.918,0,0,0,4.1-3.837,5.256,5.256,0,0,1,10.513,0,14.479,14.479,0,0,1-14.192,14.192,14.062,14.062,0,0,1-7.1-1.735c4.941,8.831,11.144,16.663,18.66,22.34A5.382,5.382,0,0,1,370.478,431.9Zm59.345-28.017a14.5,14.5,0,0,1-14.771-14.192,5.256,5.256,0,0,1,10.513,0,3.966,3.966,0,0,0,3.837,3.837,3.918,3.918,0,0,0,4.1-3.837,5.256,5.256,0,0,1,10.513,0A14.479,14.479,0,0,1,429.823,403.881ZM498.1,365.509c-.158.788-3.312,19.764-10.828,31.223a5.278,5.278,0,0,1-8.831-5.782c6.308-9.619,9.251-26.965,9.251-27.176a5.174,5.174,0,0,1,6.045-4.31A5.276,5.276,0,0,1,498.1,365.509ZM472.873,341.96c-15.874,2.891-37.794,4.521-61.816,4.521s-45.941-1.629-61.816-4.521c-20.132-3.732-29.489-9.251-29.489-17.4s9.567-14.508,29.173-19.449c17.189-4.31,39.213-6.676,62.131-6.676S456,300.8,473.189,305.113c19.659,4.941,29.173,11.3,29.173,19.449S493.005,338.281,472.873,341.96Zm67.282,47.255c-4.31,5.362-11.459,9.041-21.289,10.828a73.845,73.845,0,0,1-12.3,1.156h-.578a5.273,5.273,0,0,1-5.151-5.362,5.46,5.46,0,0,1,.368-1.84c0-.053.053-.053.053-.105a187.51,187.51,0,0,0,9.409-33.273v-.053c.053-.105.053-.315.105-.368a.193.193,0,0,0,.053-.158c.053-.105.053-.21.105-.315,0-.053.053-.105.053-.21l.105-.263a.4.4,0,0,0,.105-.21c.053-.053.053-.105.105-.158.053-.105.105-.158.158-.263l.105-.158.21-.263.158-.158c.053-.053.105-.158.158-.21l.21-.21c.053-.053.105-.105.158-.105l.263-.21.105-.105.263-.21.158-.105.263-.105.21-.105.21-.053.315-.105.158-.053.368-.105h.053a44.536,44.536,0,0,1,11.827-.315c9.146,1.156,15.191,5.782,17.031,13.089C546.148,379.018,543.152,385.484,540.156,389.216Z" transform="translate(-127.352 -112.107)" fill="#32befa"/><path d="M385.283,476.49c-7.517-5.677-13.667-13.509-18.66-22.34A14.459,14.459,0,0,1,359,441.64a5.777,5.777,0,0,1,.631-2.523,146.549,146.549,0,0,1-8.463-34.482,5.242,5.242,0,0,0-10.408,1.262A154.277,154.277,0,0,0,352.326,449c6.886,15.664,15.874,27.7,26.65,35.9a5.064,5.064,0,0,0,3.154,1.051,5.326,5.326,0,0,0,4.205-2.1A5.272,5.272,0,0,0,385.283,476.49Z" transform="translate(-143.526 -164.058)" fill="#a3e3ff"/><path d="M215,462.156a5.272,5.272,0,0,0,5.256,5.256h43.681c-1.156-3.574-2.208-7.1-3.154-10.513H220.256A5.238,5.238,0,0,0,215,462.156Z" transform="translate(-83.997 -191.075)" fill="#a3e3ff"/><path d="M122.006,272.7a5.272,5.272,0,0,0-5.256,5.256,4.017,4.017,0,0,1-4.1,3.837,3.966,3.966,0,0,1-3.837-3.837,5.256,5.256,0,0,0-10.513,0,14.484,14.484,0,0,0,28.963,0A5.272,5.272,0,0,0,122.006,272.7Z" transform="translate(-28.793 -103.738)" fill="#347794"/><path d="M249.771,292.149a14.479,14.479,0,0,0,14.192-14.192,5.256,5.256,0,0,0-10.513,0,4.017,4.017,0,0,1-4.1,3.837,3.966,3.966,0,0,1-3.837-3.837,5.256,5.256,0,0,0-10.513,0A14.5,14.5,0,0,0,249.771,292.149Z" transform="translate(-93.476 -103.738)" fill="#347794"/><path d="M484.435,312.276c-17.189-4.31-39.266-6.676-62.131-6.676s-44.942,2.365-62.131,6.676C340.514,317.217,331,323.577,331,331.724s9.356,13.667,29.489,17.4c15.874,2.891,37.794,4.521,61.816,4.521s45.941-1.629,61.816-4.521c20.132-3.68,29.489-9.251,29.489-17.4S504.042,317.217,484.435,312.276Z" transform="translate(-138.765 -119.331)" fill="#347794"/><path d="M409.767,225.8a63.941,63.941,0,0,0-12.634-1.262c.842-10.149.684-16.617.684-16.933-.053-8.256-6.317-19.983-35.638-29.238-21.109-6.678-49.061-10.307-78.7-10.307a333.855,333.855,0,0,0-42.691,2.682V85.452A31.593,31.593,0,0,0,209.207,53.9H42.864A5.277,5.277,0,0,0,37.6,59.159v235.9a5.277,5.277,0,0,0,5.264,5.259H59.34v17.511a5.277,5.277,0,0,0,5.264,5.259,5.383,5.383,0,0,0,4.106-1.946l7.422-9.1,7.422,9.1a5.289,5.289,0,0,0,9.37-3.366V300.266h97.016a119.447,119.447,0,0,0,20.214,28.554c18.9,19.3,43.586,29.08,73.275,29.08,36.69,0,65.379-14.777,85.33-43.857,10-.841,44.8-5.416,60.8-26.977,8-10.833,10.054-24.084,6.054-39.44C432.665,236.216,423.717,228.643,409.767,225.8ZM213.366,64.838a21.159,21.159,0,0,1,16.9,20.614v86.872c-5.9,1-11.581,2.209-16.9,3.576ZM48.075,289.8V64.417H192.994V182.683c-19.319,8.361-23.846,17.879-23.9,24.873a227.689,227.689,0,0,0,4.422,44.12c.842,4.417,1.948,9.15,3.264,14.093.895,3.418,1.948,6.941,3.158,10.517,1.474,4.417,3.106,8.94,5.053,13.462H48.075Zm373.062-8.94c-15.371,20.824-55.114,22.927-55.483,22.927h-.368c-.053,0-.263.053-.368.053h-.105a.976.976,0,0,0-.369.105h-.105c-.105.053-.263.105-.368.158l-.105.053c-.105.053-.263.105-.368.158l-.105.053a1.1,1.1,0,0,0-.316.21l-.105.053-.316.21-.105.105c-.105.105-.211.158-.263.263l-.105.105a1.4,1.4,0,0,0-.263.315l-.053.105a1.6,1.6,0,0,0-.263.368v.053c-17.9,27.4-44.165,41.28-77.96,41.28-26.741,0-48.85-8.729-65.7-25.872-20.372-20.719-29.636-50.377-33.848-71.57a217.431,217.431,0,0,1-4.264-42.121v-.105c0-12.147,39.48-29.133,103.807-29.133s103.807,16.985,103.807,29.133v.105a197.767,197.767,0,0,1-1.211,21.665v1.42c0,.105.053.21.053.316s.053.158.053.21l.105.263c0,.105.053.158.105.263.053.053.053.158.105.21.053.105.053.158.105.263l.105.21c.053.105.105.158.158.263l.105.21.158.21a2834.645,2834.645,0,0,1,.316.421c.053.053.105.158.158.21l.158.158.211.21.158.105.263.21.158.105.263.158.158.105.263.105.263.105.263.053c.105.053.211.053.316.105l.211.053.368.053h1.316c.263-.053,28.794-3.208,33.532,14.987C428.665,262.614,427.191,272.605,421.137,280.861Z" transform="translate(0 0)" fill="#347794"/><path d="M701.408,415.172a44.594,44.594,0,0,0-11.827.315h-.053l-.368.105-.158.053-.315.105-.21.053-.21.105-.263.105-.158.105-.263.21-.105.105-.263.21c-.053.053-.105.105-.158.105l-.21.21a.727.727,0,0,0-.158.21l-.158.158-.21.263-.105.158c-.053.105-.105.158-.158.263a.4.4,0,0,1-.105.158c-.053.053-.053.158-.105.21l-.105.263c0,.053-.052.105-.052.21a.747.747,0,0,0-.105.315.193.193,0,0,1-.053.158c-.053.053-.053.263-.105.368v.053a187.512,187.512,0,0,1-9.409,33.273c0,.053,0,.053-.053.105a5.46,5.46,0,0,0-.368,1.84,5.239,5.239,0,0,0,5.151,5.362h.578a74.371,74.371,0,0,0,12.3-1.156c9.83-1.84,16.978-5.467,21.289-10.828,3-3.732,5.992-10.2,3.522-20.027C716.547,420.9,710.5,416.276,701.408,415.172Zm5.256,26.492c-3.732,4.678-11.722,6.728-18.135,7.569a195.676,195.676,0,0,0,6.413-23.759c4.468-.263,11.985.158,13.246,5.309C709.345,435.357,708.872,438.931,706.665,441.665Z" transform="translate(-302.061 -171.16)" fill="#347794"/><path d="M383.174,487.014a14.062,14.062,0,0,0,7.1,1.735,14.479,14.479,0,0,0,14.192-14.192,5.256,5.256,0,0,0-10.513,0,4.017,4.017,0,0,1-4.1,3.837,3.966,3.966,0,0,1-3.837-3.837,5.265,5.265,0,0,0-9.882-2.523,5.136,5.136,0,0,0-.631,2.523A14.556,14.556,0,0,0,383.174,487.014Z" transform="translate(-160.008 -196.951)" fill="#347794"/><path d="M536.007,469.2a5.272,5.272,0,0,0-5.256,5.256,4.017,4.017,0,0,1-4.1,3.837,3.966,3.966,0,0,1-3.837-3.837,5.256,5.256,0,1,0-10.513,0,14.484,14.484,0,0,0,28.963,0A5.272,5.272,0,0,0,536.007,469.2Z" transform="translate(-224.788 -196.904)" fill="#347794"/><path d="M551.909,164.37a5.235,5.235,0,0,0,0,7.412,5.162,5.162,0,0,0,3.732,1.524,5.384,5.384,0,0,0,3.732-1.524,18.4,18.4,0,0,0,0-25.967,7.868,7.868,0,0,1,0-11.091,5.241,5.241,0,1,0-7.411-7.412,18.4,18.4,0,0,0,0,25.967A7.917,7.917,0,0,1,551.909,164.37Z" transform="translate(-241.042 -34.094)" fill="#347794"/><path d="M456.609,164.37a5.235,5.235,0,0,0,0,7.412,5.162,5.162,0,0,0,3.732,1.524,5.384,5.384,0,0,0,3.732-1.524,18.4,18.4,0,0,0,0-25.967,7.868,7.868,0,0,1,0-11.091,5.241,5.241,0,0,0-7.412-7.412,18.4,18.4,0,0,0,0,25.967A7.917,7.917,0,0,1,456.609,164.37Z" transform="translate(-195.912 -34.094)" fill="#347794"/><path d="M505.122,147.182a16.93,16.93,0,0,1,0,12.826,16.244,16.244,0,0,1-3.732,5.572,5.235,5.235,0,0,0,0,7.412,5.162,5.162,0,0,0,3.732,1.524,5.384,5.384,0,0,0,3.732-1.524,27.538,27.538,0,0,0,0-38.9,17.592,17.592,0,0,1-3.732-5.572,16.93,16.93,0,0,1,0-12.826,16.243,16.243,0,0,1,3.732-5.572,5.241,5.241,0,0,0-7.412-7.412,27.538,27.538,0,0,0,0,38.9A17.424,17.424,0,0,1,505.122,147.182Z" transform="translate(-215.844 -22.425)" fill="#347794"/><path d="M97.913,159.282V110.713h37.321a5.256,5.256,0,0,0,0-10.513H92.656a5.272,5.272,0,0,0-5.256,5.256v53.826a5.256,5.256,0,1,0,10.513,0Z" transform="translate(-23.623 -21.963)" fill="#a3e3ff"/><path d="M647.518,421.636a5.25,5.25,0,0,0-6.045,4.31c-.052.158-2.944,17.556-9.251,27.176a5.248,5.248,0,0,0,4.415,8.147,5.33,5.33,0,0,0,4.415-2.365c7.517-11.459,10.723-30.435,10.828-31.223A5.355,5.355,0,0,0,647.518,421.636Z" transform="translate(-281.178 -174.312)" fill="#a3e3ff"/><path d="M437.9,525.1s4.31,2.1,13.562,2.1,13.562-2.1,13.562-2.1" transform="translate(-189.559 -223.391)" fill="none" stroke="#347794" stroke-linecap="round" stroke-miterlimit="10" stroke-width="10"/><path d="M167.9,335.1s4.31,2.1,13.562,2.1,13.562-2.1,13.562-2.1" transform="translate(-61.702 -133.328)" fill="none" stroke="#347794" stroke-linecap="round" stroke-miterlimit="10" stroke-width="10"/></g></svg>