<svg xmlns="http://www.w3.org/2000/svg" width="30" height="30" viewBox="0 0 30 30"><g transform="translate(-1158 -791)"><g transform="translate(919 710.566)"><path d="M17.965,4.358,14.629,1.023A1.763,1.763,0,0,0,12.084.936L9.8,3.217,8.924,4.1l-8.27,8.27L.626,14.149.554,18.434l4.285-.072,1.783-.028,8.27-8.27.878-.878L18.052,6.9A1.763,1.763,0,0,0,17.965,4.358ZM6.1,17.1l-4.285.072.072-4.285L9.8,4.973l4.213,4.213Zm4.577-13,2.282-2.282a.54.54,0,0,1,.79.088l3.336,3.336a.54.54,0,0,1,.088.79L14.892,8.308Z" transform="translate(244 86)" fill="#37bffa"/></g><rect width="30" height="30" transform="translate(1158 791)" fill="none"/></g></svg>