<svg xmlns="http://www.w3.org/2000/svg" width="30" height="30" viewBox="0 0 30 30"><g transform="translate(-735 -753)"><path d="M19.541,6.617l-8.1-4.5a.9.9,0,0,0-.9,0l-8.1,4.5A.9.9,0,0,0,2,7.4V19.1a.9.9,0,0,0,.9.9H8.3a.9.9,0,0,0,.9-.9V13.7h3.6v5.4a.9.9,0,0,0,.9.9h5.4a.9.9,0,0,0,.9-.9V7.4a.9.9,0,0,0-.459-.783ZM18.2,18.2H14.6V12.8a.9.9,0,0,0-.9-.9H8.3a.9.9,0,0,0-.9.9v5.4H3.8V7.931l7.2-4,7.2,4Z" transform="translate(739 757.004)" fill="#fff"/><rect width="30" height="30" transform="translate(735 753)" fill="none"/></g></svg>