<svg xmlns="http://www.w3.org/2000/svg" width="55" height="54.999" viewBox="0 0 55 54.999"><g transform="translate(0 0)"><rect width="55" height="54.999" fill="none"/></g><g transform="translate(6.319 3.57)"><path d="M5,2.788V48.5a.789.789,0,0,0,.79.788H40.547a.789.789,0,0,0,.79-.788v-.788h5.53a.789.789,0,0,0,.79-.788V4.364a.789.789,0,0,0-.79-.788H36.135L34.786,2.231A.791.791,0,0,0,34.228,2H5.79A.789.789,0,0,0,5,2.788ZM46.077,5.153V46.137h-4.74V9.093a.787.787,0,0,0-.231-.557L37.715,5.153ZM35.018,4.691l3.623,3.615H35.018ZM6.58,3.576H33.438V9.093a.789.789,0,0,0,.79.788h5.53V47.713H6.58Z" transform="translate(-5 -2)" fill="#ccc"/><path d="M19.724,8a7.724,7.724,0,1,0,7.724,7.724A7.724,7.724,0,0,0,19.724,8Zm2.317,13.448a6.129,6.129,0,0,1-4.634,0V16.517a.8.8,0,0,1,.793-.793h3.048a.8.8,0,0,1,.793.793Zm-3.862-8.813a1.545,1.545,0,1,1,1.545,1.545A1.545,1.545,0,0,1,18.179,12.634Zm5.407,7.905V16.517a2.334,2.334,0,0,0-1.342-2.106,3.089,3.089,0,1,0-5.04,0,2.334,2.334,0,0,0-1.342,2.106v4.022a6.179,6.179,0,1,1,7.724,0Z" transform="translate(-6.593 -3.366)" fill="#ccc"/><rect width="2.363" height="1.545" transform="translate(22.892 9.464)" fill="#ccc"/><rect width="1.545" height="1.545" transform="translate(26.881 9.464)" fill="#ccc"/><rect width="6.225" height="1.545" transform="translate(22.95 12.619)" fill="#ccc"/><rect width="7.77" height="1.545" transform="translate(22.977 15.774)" fill="#ccc"/><path d="M19.724,36a7.724,7.724,0,1,0,7.724,7.724A7.724,7.724,0,0,0,19.724,36Zm2.317,13.448a6.129,6.129,0,0,1-4.634,0V44.517a.8.8,0,0,1,.793-.793h3.048a.8.8,0,0,1,.793.793Zm-3.862-8.813a1.545,1.545,0,1,1,1.545,1.545A1.545,1.545,0,0,1,18.179,40.634Zm5.407,7.905V44.517a2.334,2.334,0,0,0-1.342-2.106,3.089,3.089,0,1,0-5.04,0,2.334,2.334,0,0,0-1.342,2.106v4.022a6.179,6.179,0,1,1,7.724,0Z" transform="translate(-6.593 -8.792)" fill="#ccc"/><rect width="2.363" height="1.545" transform="translate(22.892 31.548)" fill="#ccc"/><rect width="1.545" height="1.545" transform="translate(26.881 31.548)" fill="#ccc"/><rect width="6.225" height="1.545" transform="translate(22.95 34.703)" fill="#ccc"/><rect width="7.77" height="1.545" transform="translate(22.977 38.02)" fill="#ccc"/></g></svg>