<svg id="Grupo_885" data-name="Grupo 885" xmlns="http://www.w3.org/2000/svg" width="94.266" height="94.266" viewBox="0 0 94.266 94.266">
  <rect id="Rectángulo_209" data-name="Rectángulo 209" width="94.266" height="94.266" transform="translate(0 0)" fill="none"/>
  <g id="noun_Document_2414760" transform="translate(17.476 12.607)">
    <path id="Trazado_32" data-name="Trazado 32" d="M5,3.108V67.351a1.107,1.107,0,0,0,1.107,1.108H54.822a1.107,1.107,0,0,0,1.107-1.108V66.243h7.75a1.107,1.107,0,0,0,1.107-1.108V5.323a1.107,1.107,0,0,0-1.107-1.108H48.638l-1.89-1.891A1.107,1.107,0,0,0,45.965,2H6.107A1.107,1.107,0,0,0,5,3.108ZM62.572,6.431v57.6H55.929V11.969a1.108,1.108,0,0,0-.324-.783L50.852,6.431Zm-15.5-.649,5.077,5.08H47.072ZM7.214,4.215H44.858v7.753a1.107,1.107,0,0,0,1.107,1.108h7.75V66.243H7.214Z" transform="translate(-5 -2)" fill="#37bffa" stroke="#37bffa" stroke-width="1"/>
    <g id="noun_attach_1723726" transform="translate(10.564 19.572)">
      <g id="Grupo_312" data-name="Grupo 312">
        <g id="Grupo_311" data-name="Grupo 311">
          <path id="Trazado_104" data-name="Trazado 104" d="M89.679,100.284l2.3-2.3,3.559-3.559a12.468,12.468,0,0,1,1.009-.975l-.252.2a3.368,3.368,0,0,1,.714-.419c-.1.04-.2.084-.3.124a3.453,3.453,0,0,1,.863-.236c-.109.016-.22.031-.329.043a3.522,3.522,0,0,1,.848,0c-.109-.016-.22-.031-.329-.043a3.326,3.326,0,0,1,.863.236c-.1-.04-.2-.084-.3-.124a3.5,3.5,0,0,1,.714.419l-.252-.2a3.316,3.316,0,0,1,.571.571l-.2-.252a3.368,3.368,0,0,1,.419.714c-.04-.1-.084-.2-.124-.3a3.454,3.454,0,0,1,.236.863c-.016-.109-.031-.221-.043-.329a3.521,3.521,0,0,1,0,.848c.016-.109.031-.22.043-.329a3.328,3.328,0,0,1-.236.863c.04-.1.084-.2.124-.3a3.5,3.5,0,0,1-.419.714l.2-.252a11.5,11.5,0,0,1-.894.932l-1.711,1.711-3.779,3.779a14.608,14.608,0,0,1-1.3,1.221l.252-.2a7.059,7.059,0,0,1-1.438.829c.1-.04.2-.084.3-.124a6.782,6.782,0,0,1-1.689.463c.109-.016.22-.031.329-.044a6.85,6.85,0,0,1-1.782,0c.109.016.221.031.329.044a6.781,6.781,0,0,1-1.689-.463c.1.04.2.084.3.124a6.634,6.634,0,0,1-1.435-.835l.252.2A6.739,6.739,0,0,1,84.2,102.7l.2.252a6.451,6.451,0,0,1-.838-1.435c.04.1.084.2.124.3a6.783,6.783,0,0,1-.463-1.689c.016.109.031.221.043.329a6.853,6.853,0,0,1,0-1.783c-.016.109-.031.22-.043.329a6.782,6.782,0,0,1,.463-1.689c-.04.1-.084.2-.124.3a6.633,6.633,0,0,1,.835-1.435l-.2.252a17.084,17.084,0,0,1,1.515-1.593l2.736-2.736,3.372-3.373,2.876-2.876c.4-.4.8-.807,1.211-1.211a6.971,6.971,0,0,1,.643-.565l-.252.2a6.561,6.561,0,0,1,1.435-.835c-.1.04-.2.084-.3.124a6.781,6.781,0,0,1,1.689-.463c-.109.016-.22.031-.329.043a6.848,6.848,0,0,1,1.782,0c-.109-.016-.22-.031-.329-.043a6.782,6.782,0,0,1,1.689.463c-.1-.04-.2-.084-.3-.124a6.635,6.635,0,0,1,1.435.835l-.252-.2a6.741,6.741,0,0,1,1.208,1.208l-.2-.252a6.561,6.561,0,0,1,.835,1.435c-.04-.1-.084-.2-.124-.3A6.783,6.783,0,0,1,105,87.852c-.016-.109-.031-.22-.043-.329a6.851,6.851,0,0,1,0,1.783c.016-.109.031-.22.043-.329a6.782,6.782,0,0,1-.463,1.689c.04-.1.084-.2.124-.3a6.634,6.634,0,0,1-.835,1.435l.2-.252a6.537,6.537,0,0,1-.565.643,1.243,1.243,0,0,0,1.758,1.758,7.823,7.823,0,0,0,2.23-6.388,7.76,7.76,0,0,0-3.8-5.9,7.88,7.88,0,0,0-6.677-.587,8.023,8.023,0,0,0-2.829,1.8l-.323.323-1.907,1.907-2.9,2.9-3.015,3.015-2.279,2.279a14.7,14.7,0,0,0-1.584,1.758,7.831,7.831,0,0,0,10.294,11.295,11.943,11.943,0,0,0,2.472-2.084l2.81-2.811,2.615-2.615.512-.512a4.542,4.542,0,0,0,1.32-3.23,4.467,4.467,0,0,0-1.615-3.407,4.567,4.567,0,0,0-1.832-.922,4.76,4.76,0,0,0-2.093,0,4.535,4.535,0,0,0-2.2,1.258l-.72.721L90.881,95.57l-2.553,2.553-.413.413a1.259,1.259,0,0,0,0,1.758,1.285,1.285,0,0,0,1.764-.009Z" transform="translate(-80.718 -80.588)" fill="#37bffa" stroke="#37bffa" stroke-width="1"/>
        </g>
      </g>
    </g>
  </g>
  <g id="Elipse_21" data-name="Elipse 21" transform="translate(58.289 35.74)" fill="#37bffa" stroke="#fff" stroke-width="3">
    <circle cx="16.095" cy="16.095" r="16.095" stroke="none"/>
    <circle cx="16.095" cy="16.095" r="17.595" fill="none"/>
  </g>
  <text id="_5" data-name="5" transform="translate(74.627 59.292)" fill="#fff" font-size="21" font-family="SegoeUI-Bold, Segoe UI" font-weight="700"><tspan x="-6.04" y="0">5</tspan></text>
</svg>
