<?xml version="1.0" encoding="utf-8"?>
<!-- Generator: Adobe Illustrator 23.0.1, SVG Export Plug-In . SVG Version: 6.00 Build 0)  -->
<svg version="1.1" id="Grupo_885" xmlns="http://www.w3.org/2000/svg" xmlns:xlink="http://www.w3.org/1999/xlink" x="0px" y="0px"
	 viewBox="0 0 94.3 94.3" style="enable-background:new 0 0 94.3 94.3;" xml:space="preserve">
<style type="text/css">
	.st0{fill:none;}
	.st1{fill:#3CFF96;stroke:#3CFF96;}
	.st2{fill:#3CFF96;}
	.st3{fill:none;stroke:#FFFFFF;stroke-width:3;}
	.st4{fill:#FFFFFF;}
	.st5{font-family:'SegoeUI-Bold';}
	.st6{font-size:21px;}
</style>
<rect id="Rectángulo_209" class="st0" width="94.3" height="94.3"/>
<g id="noun_Document_2414760" transform="translate(17.476 12.607)">
	<path id="Trazado_32" class="st1" d="M0,1.1v64.2c0,0.6,0.5,1.1,1.1,1.1c0,0,0,0,0,0h48.7c0.6,0,1.1-0.5,1.1-1.1c0,0,0,0,0,0v-1.1
		h7.8c0.6,0,1.1-0.5,1.1-1.1c0,0,0,0,0,0V3.3c0-0.6-0.5-1.1-1.1-1.1c0,0,0,0,0,0h-15l-1.9-1.9C41.5,0.1,41.3,0,41,0H1.1
		C0.5,0,0,0.5,0,1.1C0,1.1,0,1.1,0,1.1z M57.6,4.4V62h-6.6V10c0-0.3-0.1-0.6-0.3-0.8l-4.8-4.8H57.6z M42.1,3.8l5.1,5.1h-5.1V3.8z
		 M2.2,2.2h37.6V10c0,0.6,0.5,1.1,1.1,1.1c0,0,0,0,0,0h7.8v53.2H2.2V2.2z"/>
	<g id="noun_attach_1723726" transform="translate(10.564 19.572)">
		<g id="Grupo_312">
			<g id="Grupo_311">
				<path id="Trazado_104" class="st1" d="M9,19.7l2.3-2.3l3.6-3.6c0.3-0.3,0.7-0.7,1-1l-0.3,0.2c0.2-0.2,0.5-0.3,0.7-0.4
					c-0.1,0-0.2,0.1-0.3,0.1c0.3-0.1,0.6-0.2,0.9-0.2c-0.1,0-0.2,0-0.3,0c0.3,0,0.6,0,0.8,0c-0.1,0-0.2,0-0.3,0
					c0.3,0,0.6,0.1,0.9,0.2c-0.1,0-0.2-0.1-0.3-0.1c0.3,0.1,0.5,0.3,0.7,0.4l-0.3-0.2c0.2,0.2,0.4,0.4,0.6,0.6l-0.2-0.3
					c0.2,0.2,0.3,0.5,0.4,0.7c0-0.1-0.1-0.2-0.1-0.3c0.1,0.3,0.2,0.6,0.2,0.9c0-0.1,0-0.2,0-0.3c0,0.3,0,0.6,0,0.8
					c0-0.1,0-0.2,0-0.3c0,0.3-0.1,0.6-0.2,0.9c0-0.1,0.1-0.2,0.1-0.3c-0.1,0.3-0.3,0.5-0.4,0.7l0.2-0.3c-0.3,0.3-0.6,0.6-0.9,0.9
					L16,18.3l-3.8,3.8c-0.4,0.4-0.8,0.8-1.3,1.2l0.3-0.2c-0.4,0.3-0.9,0.6-1.4,0.8c0.1,0,0.2-0.1,0.3-0.1C9.5,24,9,24.2,8.4,24.3
					c0.1,0,0.2,0,0.3,0c-0.6,0.1-1.2,0.1-1.8,0c0.1,0,0.2,0,0.3,0c-0.6-0.1-1.1-0.2-1.7-0.5c0.1,0,0.2,0.1,0.3,0.1
					c-0.5-0.2-1-0.5-1.4-0.8l0.3,0.2c-0.4-0.3-0.9-0.7-1.2-1.2l0.2,0.3c-0.3-0.4-0.6-0.9-0.8-1.4c0,0.1,0.1,0.2,0.1,0.3
					c-0.2-0.5-0.4-1.1-0.5-1.7c0,0.1,0,0.2,0,0.3c-0.1-0.6-0.1-1.2,0-1.8c0,0.1,0,0.2,0,0.3c0.1-0.6,0.2-1.1,0.5-1.7
					c0,0.1-0.1,0.2-0.1,0.3c0.2-0.5,0.5-1,0.8-1.4l-0.2,0.3c0.5-0.6,1-1.1,1.5-1.6l2.7-2.7l3.4-3.4L14,5.3c0.4-0.4,0.8-0.8,1.2-1.2
					c0.2-0.2,0.4-0.4,0.6-0.6l-0.3,0.2C16,3.4,16.5,3.1,17,2.9c-0.1,0-0.2,0.1-0.3,0.1c0.5-0.2,1.1-0.4,1.7-0.5c-0.1,0-0.2,0-0.3,0
					c0.6-0.1,1.2-0.1,1.8,0c-0.1,0-0.2,0-0.3,0c0.6,0.1,1.1,0.2,1.7,0.5c-0.1,0-0.2-0.1-0.3-0.1c0.5,0.2,1,0.5,1.4,0.8l-0.3-0.2
					c0.5,0.3,0.9,0.8,1.2,1.2l-0.2-0.3c0.3,0.4,0.6,0.9,0.8,1.4c0-0.1-0.1-0.2-0.1-0.3c0.2,0.5,0.4,1.1,0.5,1.7c0-0.1,0-0.2,0-0.3
					c0.1,0.6,0.1,1.2,0,1.8c0-0.1,0-0.2,0-0.3C24.2,9,24,9.5,23.8,10.1c0-0.1,0.1-0.2,0.1-0.3c-0.2,0.5-0.5,1-0.8,1.4l0.2-0.3
					c-0.2,0.2-0.4,0.4-0.6,0.6c-0.5,0.5-0.5,1.3,0,1.8s1.3,0.5,1.8,0c1.7-1.7,2.5-4,2.2-6.4c-0.3-2.5-1.7-4.7-3.8-5.9
					c-2-1.2-4.5-1.4-6.7-0.6c-1.1,0.4-2,1-2.8,1.8l-0.3,0.3l-1.9,1.9L8.3,7.4l-3,3L3,12.7c-0.6,0.5-1.1,1.1-1.6,1.8
					c-2.5,3.5-1.6,8.4,1.9,10.9c2.5,1.7,5.7,1.9,8.4,0.4c0.9-0.6,1.7-1.3,2.5-2.1l2.8-2.8l2.6-2.6l0.5-0.5c0.9-0.9,1.3-2,1.3-3.2
					c0-1.3-0.6-2.6-1.6-3.4c-0.5-0.4-1.2-0.8-1.8-0.9c-0.7-0.2-1.4-0.2-2.1,0c-0.8,0.2-1.6,0.6-2.2,1.3L13,12.2L10.2,15l-2.6,2.6
					l-0.4,0.4c-0.5,0.5-0.5,1.3,0,1.8C7.7,20.2,8.5,20.2,9,19.7L9,19.7z"/>
			</g>
		</g>
	</g>
</g>
<g id="Elipse_21" transform="translate(58.289 35.74)">
	<circle class="st2" cx="16.1" cy="16.1" r="16.1"/>
	<circle class="st3" cx="16.1" cy="16.1" r="17.6"/>
</g>
<text transform="matrix(1 0 0 1 68.587 59.292)" class="st4 st5 st6">8</text>
</svg>
