<svg xmlns="http://www.w3.org/2000/svg" width="42" height="42" viewBox="0 0 42 42"><g transform="translate(-755 -952)"><g transform="translate(759.346 961)"><circle cx="0.778" cy="0.778" r="0.778" transform="translate(25.401 7.791)" fill="#37bffa"/><circle cx="0.778" cy="0.778" r="0.778" transform="translate(20.404 7.791)" fill="#37bffa"/><circle cx="0.778" cy="0.778" r="0.778" transform="translate(15.407 7.791)" fill="#37bffa"/><circle cx="0.778" cy="0.778" r="0.778" transform="translate(10.409 7.791)" fill="#37bffa"/><circle cx="0.778" cy="0.778" r="0.778" transform="translate(5.412 7.791)" fill="#37bffa"/><circle cx="0.778" cy="0.778" r="0.778" transform="translate(25.401 12.789)" fill="#37bffa"/><circle cx="0.778" cy="0.778" r="0.778" transform="translate(20.404 12.789)" fill="#37bffa"/><circle cx="0.778" cy="0.778" r="0.778" transform="translate(15.407 12.789)" fill="#37bffa"/><circle cx="0.778" cy="0.778" r="0.778" transform="translate(5.412 12.789)" fill="#37bffa"/><circle cx="0.778" cy="0.778" r="0.778" transform="translate(25.401 17.786)" fill="#37bffa"/><circle cx="0.778" cy="0.778" r="0.778" transform="translate(20.404 17.786)" fill="#37bffa"/><circle cx="0.778" cy="0.778" r="0.778" transform="translate(15.407 17.786)" fill="#37bffa"/><circle cx="0.778" cy="0.778" r="0.778" transform="translate(10.409 17.786)" fill="#37bffa"/><circle cx="0.778" cy="0.778" r="0.778" transform="translate(5.412 17.786)" fill="#37bffa"/><path d="M134.6,230.65h-4.7a.669.669,0,0,0-.669.669v4.7a.669.669,0,0,0,.669.669h4.7a.669.669,0,0,0,.669-.669v-4.7A.669.669,0,0,0,134.6,230.65Zm-.669,4.7h-3.359v-3.359h3.359v3.359Z" transform="translate(-121.06 -220.1)" fill="#37bffa"/><path d="M30.14,65.381H25.227v-.858a.743.743,0,1,0-1.486,0v.858H19.694v-.858a.743.743,0,1,0-1.486,0v.858H14.162v-.858a.743.743,0,1,0-1.486,0v.858H8.629v-.858a.743.743,0,1,0-1.486,0v.858H2.23A2.232,2.232,0,0,0,0,67.61V85.854a2.232,2.232,0,0,0,2.23,2.23H30.14a2.232,2.232,0,0,0,2.23-2.23V67.61A2.232,2.232,0,0,0,30.14,65.381Zm0,21.217H2.23a.744.744,0,0,1-.743-.743V67.61a.744.744,0,0,1,.743-.743H7.143v.858a.743.743,0,1,0,1.486,0v-.858h4.046v.858a.743.743,0,1,0,1.486,0v-.858h4.046v.858a.743.743,0,0,0,1.486,0v-.858H23.74v.858a.743.743,0,1,0,1.486,0v-.858H30.14a.744.744,0,0,1,.743.743V85.854h0A.744.744,0,0,1,30.14,86.6Z" transform="translate(0 -63.779)" fill="#37bffa"/></g><rect width="42" height="42" transform="translate(755 952)" fill="none"/></g></svg>