<?xml version="1.0" encoding="utf-8"?>
<!-- Generator: Adobe Illustrator 23.0.1, SVG Export Plug-In . SVG Version: 6.00 Build 0)  -->
<svg version="1.1" id="Capa_1" xmlns="http://www.w3.org/2000/svg" xmlns:xlink="http://www.w3.org/1999/xlink" x="0px" y="0px"
	 viewBox="0 0 116 116" style="enable-background:new 0 0 116 116;" xml:space="preserve">
<style type="text/css">
	.st0{fill:none;}
	.st1{fill:#3CFF96;stroke:#3CFF96;}
	.st2{fill:#3CFF96;}
	.st3{fill:none;stroke:#FFFFFF;stroke-width:3;}
	.st4{fill:#FFFFFF;}
</style>
<rect class="st0" width="116" height="116"/>
<g transform="translate(21.355 15.577)">
	<path class="st1" d="M0,1.4v79.4c0,0.8,0.6,1.4,1.4,1.4c0,0,0,0,0,0h60.2c0.8,0,1.4-0.6,1.4-1.4v-1.4h9.6c0.8,0,1.4-0.6,1.4-1.4
		c0,0,0,0,0,0V4.1c0-0.8-0.6-1.4-1.4-1.4H53.9l-2.3-2.3C51.3,0.1,51,0,50.6,0H1.4C0.6,0,0,0.6,0,1.4L0,1.4z M71.1,5.5v71.2h-8.2
		V12.3c0-0.4-0.1-0.7-0.4-1l-5.9-5.9H71.1z M52,4.7l6.3,6.3H52L52,4.7z M2.7,2.7h46.5v9.6c0,0.8,0.6,1.4,1.4,1.4l0,0h9.6v65.7H2.7
		V2.7z"/>
	<g transform="translate(13.052 24.181)">
		<path class="st1" d="M11.1,24.3l2.8-2.8l4.4-4.4c0.4-0.4,0.8-0.8,1.2-1.2l-0.3,0.2c0.3-0.2,0.6-0.4,0.9-0.5
			c-0.1,0.1-0.2,0.1-0.4,0.2c0.3-0.1,0.7-0.2,1.1-0.3c-0.1,0-0.3,0-0.4,0.1c0.3,0,0.7,0,1,0c-0.1,0-0.3,0-0.4-0.1
			c0.4,0,0.7,0.1,1.1,0.3c-0.1-0.1-0.2-0.1-0.4-0.2c0.3,0.1,0.6,0.3,0.9,0.5l-0.3-0.2c0.3,0.2,0.5,0.4,0.7,0.7l-0.2-0.3
			c0.2,0.3,0.4,0.6,0.5,0.9c-0.1-0.1-0.1-0.2-0.2-0.4c0.1,0.3,0.2,0.7,0.3,1.1c0-0.1,0-0.3-0.1-0.4c0,0.3,0,0.7,0,1
			c0-0.1,0-0.3,0.1-0.4c0,0.4-0.1,0.7-0.3,1.1c0.1-0.1,0.1-0.2,0.2-0.4c-0.1,0.3-0.3,0.6-0.5,0.9l0.2-0.3c-0.3,0.4-0.7,0.8-1.1,1.2
			l-2.1,2.1l-4.7,4.7c-0.5,0.5-1,1-1.6,1.5l0.3-0.2c-0.5,0.4-1.1,0.8-1.8,1c0.1-0.1,0.2-0.1,0.4-0.2c-0.7,0.3-1.4,0.5-2.1,0.6
			c0.1,0,0.3,0,0.4-0.1c-0.7,0.1-1.5,0.1-2.2,0C8.7,30,8.8,30,9,30c-0.7-0.1-1.4-0.3-2.1-0.6c0.1,0.1,0.2,0.1,0.4,0.2
			c-0.6-0.3-1.2-0.6-1.8-1l0.3,0.2c-0.6-0.4-1.1-0.9-1.5-1.5l0.2,0.3c-0.4-0.5-0.8-1.1-1-1.8c0.1,0.1,0.1,0.2,0.2,0.4
			c-0.3-0.7-0.5-1.4-0.6-2.1c0,0.1,0,0.3,0.1,0.4c-0.1-0.7-0.1-1.5,0-2.2c0,0.1,0,0.3-0.1,0.4c0.1-0.7,0.3-1.4,0.6-2.1
			c-0.1,0.1-0.1,0.2-0.2,0.4c0.3-0.6,0.6-1.2,1-1.8l-0.2,0.3c0.6-0.7,1.2-1.4,1.9-2l3.4-3.4l4.2-4.2l3.6-3.6c0.5-0.5,1-1,1.5-1.5
			c0.3-0.2,0.5-0.5,0.8-0.7l-0.3,0.2c0.5-0.4,1.1-0.8,1.8-1c-0.1,0.1-0.2,0.1-0.4,0.2c0.7-0.3,1.4-0.5,2.1-0.6c-0.1,0-0.3,0-0.4,0.1
			c0.7-0.1,1.5-0.1,2.2,0c-0.1,0-0.3,0-0.4-0.1c0.7,0.1,1.4,0.3,2.1,0.6c-0.1-0.1-0.2-0.1-0.4-0.2c0.6,0.3,1.2,0.6,1.8,1l-0.3-0.2
			c0.6,0.4,1.1,0.9,1.5,1.5l-0.2-0.3c0.4,0.5,0.8,1.1,1,1.8c-0.1-0.1-0.1-0.2-0.2-0.4C29.7,7.6,29.9,8.3,30,9c0-0.1,0-0.3-0.1-0.4
			c0.1,0.7,0.1,1.5,0,2.2c0-0.1,0-0.3,0.1-0.4c-0.1,0.7-0.3,1.4-0.6,2.1c0.1-0.1,0.1-0.2,0.2-0.4c-0.3,0.6-0.6,1.2-1,1.8l0.2-0.3
			c-0.2,0.3-0.4,0.5-0.7,0.8c-0.6,0.6-0.6,1.6,0,2.2c0.6,0.6,1.5,0.6,2.1,0c2.1-2.1,3.1-5,2.8-7.9c-0.3-3-2.1-5.8-4.7-7.3
			c-2.5-1.5-5.5-1.7-8.2-0.7c-1.3,0.5-2.5,1.2-3.5,2.2l-0.4,0.4l-2.4,2.4l-3.6,3.6l-3.7,3.7l-2.8,2.8c-0.7,0.7-1.4,1.4-2,2.2
			c-3.1,4.4-2,10.4,2.4,13.5c3.1,2.1,7.1,2.3,10.3,0.5c1.1-0.7,2.2-1.6,3.1-2.6l3.5-3.5l3.2-3.2l0.6-0.6c1.1-1.1,1.6-2.5,1.6-4
			c0-1.6-0.7-3.2-2-4.2c-0.7-0.5-1.4-0.9-2.3-1.1c-0.9-0.2-1.7-0.2-2.6,0c-1,0.2-2,0.8-2.7,1.6L16,15l-3.5,3.5l-3.2,3.2l-0.5,0.5
			c-0.6,0.6-0.6,1.6,0,2.2C9.5,24.9,10.5,24.9,11.1,24.3L11.1,24.3z"/>
	</g>
</g>
<g transform="translate(71.55 43.889)">
	<circle class="st2" cx="19.9" cy="19.9" r="19.9"/>
	<circle class="st3" cx="19.9" cy="19.9" r="21.4"/>
</g>
<path class="st4" d="M90.8,71c3.3,0,5.3-2,5.3-4.8v0c0-2.7-2-3.8-3.9-4.1l3.7-3.5v-2.4H86v2.8h5.8l-3.5,3.5l0.5,2.1h1.3
	c1.8,0,2.9,0.7,2.9,1.9v0c0,1-0.9,1.8-1.9,1.8c-0.1,0-0.1,0-0.2,0c-1.4,0-2.7-0.7-3.6-1.8l-2.2,2.1C86.5,70.2,88.6,71.1,90.8,71z"/>
</svg>
