<svg id="Grupo_1004" data-name="Grupo 1004" xmlns="http://www.w3.org/2000/svg" width="55" height="55" viewBox="0 0 55 55">
  <g id="Grupo_205" data-name="Grupo 205" transform="translate(0 0)">
    <rect id="Rectángulo_57" data-name="Rectángulo 57" width="55" height="55" fill="none"/>
  </g>
  <g id="noun_sand_clock_2414755" data-name="noun_sand clock_2414755" transform="translate(8.095 2.698)">
    <path id="Trazado_35" data-name="Trazado 35" d="M30.674,28.1a5.681,5.681,0,0,0,5.674-5.673V20.811A.811.811,0,0,0,35.538,20H25.811a.811.811,0,0,0-.811.811v1.621A5.681,5.681,0,0,0,30.674,28.1Zm-4.053-6.484h8.106v.81a4.053,4.053,0,0,1-8.106,0Z" transform="translate(-12.032 -5.046)" fill="#4deb96"/>
    <rect id="Rectángulo_87" data-name="Rectángulo 87" width="1.621" height="1.621" transform="translate(17.831 24.84)" fill="#4deb96"/>
    <rect id="Rectángulo_88" data-name="Rectángulo 88" width="1.621" height="1.621" transform="translate(17.831 28.152)" fill="#4deb96"/>
    <rect id="Rectángulo_89" data-name="Rectángulo 89" width="1.621" height="1.621" transform="translate(17.831 37.26)" fill="#4deb96"/>
    <rect id="Rectángulo_90" data-name="Rectángulo 90" width="1.621" height="1.621" transform="translate(19.453 39.919)" fill="#4deb96"/>
    <path id="Trazado_36" data-name="Trazado 36" d="M46.289,5.31A3.277,3.277,0,0,0,43.047,2h-30.8A3.259,3.259,0,0,0,9.029,4.886a3.3,3.3,0,0,0,2.4,3.616V24.985a2.486,2.486,0,0,0,0,3.674V45.143a3.3,3.3,0,0,0-2.4,3.616,3.259,3.259,0,0,0,3.214,2.886h30.8a3.259,3.259,0,0,0,3.214-2.886,3.3,3.3,0,0,0-2.4-3.616V28.659a2.486,2.486,0,0,0,0-3.674V8.5A3.3,3.3,0,0,0,46.289,5.31ZM44.668,48.335a1.638,1.638,0,0,1-1.621,1.655h-30.8a1.655,1.655,0,0,1,0-3.31h30.8A1.638,1.638,0,0,1,44.668,48.335ZM14.675,25.995a.828.828,0,0,1,0,1.655H13.054a.828.828,0,0,1,0-1.655ZM13.054,24.34V8.619h1.621V24.34ZM14.675,29.3V45.025H13.054V29.3ZM16.3,24.985V8.619h2.432V19.376a9.075,9.075,0,0,0,3.8,7.447,9.075,9.075,0,0,0-3.8,7.447V45.025H16.3V28.659a2.486,2.486,0,0,0,0-3.674Zm22.7,3.674V45.025H36.562V34.269a9.075,9.075,0,0,0-3.8-7.447,9.075,9.075,0,0,0,3.8-7.447V8.619h2.432V24.985a2.486,2.486,0,0,0,0,3.674ZM34.94,19.376a7.407,7.407,0,0,1-4.134,6.7.835.835,0,0,0,0,1.489,7.407,7.407,0,0,1,4.134,6.7V45.025H33.319V37.579a.834.834,0,0,0-.291-.636L31.569,35.7a6.035,6.035,0,0,0-7.846,0l-1.459,1.241a.834.834,0,0,0-.293.636v7.447H20.349V34.269a7.407,7.407,0,0,1,4.134-6.7.835.835,0,0,0,0-1.489,7.407,7.407,0,0,1-4.134-6.7V8.619H34.94ZM31.7,45.025H23.592V37.967l1.167-.993a4.435,4.435,0,0,1,5.771,0l1.168.993Zm10.538-19.03a.828.828,0,0,1,0,1.655H40.615a.828.828,0,0,1,0-1.655ZM40.615,24.34V8.619h1.621V24.34ZM42.236,29.3V45.025H40.615V29.3Zm.811-22.34h-30.8a1.655,1.655,0,0,1,0-3.31h30.8a1.655,1.655,0,0,1,0,3.31Z" transform="translate(-9.003 -2)" fill="#4deb96"/>
  </g>
</svg>
