<svg xmlns="http://www.w3.org/2000/svg" width="35.029" height="42.511" viewBox="0 0 35.029 42.511"><g transform="translate(-1272.563 -1690)"><g transform="translate(1272.563 1690)" fill="#e1f2fa"><path d="M 30.95637130737305 42.01098251342773 L 4.073211669921875 42.01098251342773 C 2.102941513061523 42.01098251342773 0.5000014901161194 40.40805435180664 0.5000014901161194 38.43778228759766 L 0.5000014901161194 4.07321310043335 C 0.5000014901161194 2.102943181991577 2.102941513061523 0.5000031590461731 4.073211669921875 0.5000031590461731 L 30.95637130737305 0.5000031590461731 C 32.92664337158203 0.5000031590461731 34.52958297729492 2.102943181991577 34.52958297729492 4.07321310043335 L 34.52958297729492 38.43778228759766 C 34.52958297729492 40.40805435180664 32.92664337158203 42.01098251342773 30.95637130737305 42.01098251342773 Z" stroke="none"/><path d="M 4.073211669921875 1.000003814697266 C 2.378643035888672 1.000003814697266 1 2.378631591796875 1 4.073204040527344 L 1 38.43777465820312 C 1 40.13234329223633 2.378643035888672 41.51098251342773 4.073211669921875 41.51098251342773 L 30.95637130737305 41.51098251342773 C 32.65093994140625 41.51098251342773 34.02958297729492 40.13234329223633 34.02958297729492 38.43777465820312 L 34.02958297729492 4.073204040527344 C 34.02958297729492 2.378631591796875 32.65093994140625 1.000003814697266 30.95637130737305 1.000003814697266 L 4.073211669921875 1.000003814697266 M 4.073211669921875 3.814697265625e-06 L 30.95637130737305 3.814697265625e-06 C 33.20595169067383 3.814697265625e-06 35.02958297729492 1.823642730712891 35.02958297729492 4.073204040527344 L 35.02958297729492 38.43777465820312 C 35.02958297729492 40.68734359741211 33.20595169067383 42.51098251342773 30.95637130737305 42.51098251342773 L 4.073211669921875 42.51098251342773 C 1.823631286621094 42.51098251342773 0 40.68734359741211 0 38.43777465820312 L 0 4.073204040527344 C 0 1.823642730712891 1.823631286621094 3.814697265625e-06 4.073211669921875 3.814697265625e-06 Z" stroke="none" fill="#32befa"/></g><path d="M0,8.994H9.167V0" transform="translate(1289.639 1701.483) rotate(45)" fill="none" stroke="#32befa" stroke-width="2"/></g></svg>