<svg xmlns="http://www.w3.org/2000/svg" width="60" height="60" viewBox="0 0 60 60">
  <g id="Grupo_1010" data-name="Grupo 1010" transform="translate(-1015 -434)">
    <rect id="Rectángulo_255" data-name="Rectángulo 255" width="60" height="60" transform="translate(1015 434)" fill="none"/>
    <g id="No_aprobado_icon" data-name="No aprobado_icon" transform="translate(1017.005 442.801)">
      <path id="Trazado_191" data-name="Trazado 191" d="M101.673,272.7a.75.75,0,0,0-.748.748.571.571,0,0,1-.583.546.564.564,0,0,1-.546-.546.748.748,0,0,0-1.5,0,2.061,2.061,0,0,0,4.12,0A.75.75,0,0,0,101.673,272.7Z" transform="translate(-93.761 -256.522)" fill="#999"/>
      <path id="Trazado_192" data-name="Trazado 192" d="M238.373,272.7a.75.75,0,0,0-.748.748.572.572,0,0,1-.583.546.564.564,0,0,1-.546-.546.748.748,0,0,0-1.5,0,2.061,2.061,0,0,0,4.12,0A.745.745,0,0,0,238.373,272.7Z" transform="translate(-220.366 -256.522)" fill="#999"/>
      <path id="Trazado_193" data-name="Trazado 193" d="M352.829,306.55a41.608,41.608,0,0,0-17.678,0c-2.8.7-4.15,1.608-4.15,2.767s1.331,1.944,4.2,2.475a60.45,60.45,0,0,0,17.589,0c2.864-.523,4.2-1.316,4.2-2.475S355.618,307.253,352.829,306.55Z" transform="translate(-309.383 -287.013)" fill="#999"/>
      <path id="Trazado_194" data-name="Trazado 194" d="M93.689,81.166a4.292,4.292,0,0,0-3.65-3.078,9.024,9.024,0,0,0-1.78-.178c.119-1.428.1-2.338.1-2.383-.007-1.162-.89-2.812-5.022-4.114a38.259,38.259,0,0,0-11.083-1.45,47.117,47.117,0,0,0-6.016.377v-12a4.449,4.449,0,0,0-4.451-4.44H38.342a.743.743,0,0,0-.742.74V87.833a.743.743,0,0,0,.742.74h2.322v2.464a.743.743,0,0,0,.742.74.759.759,0,0,0,.579-.274l1.046-1.28,1.046,1.28a.745.745,0,0,0,1.32-.474V88.566H59.068a16.807,16.807,0,0,0,2.849,4.018,13.9,13.9,0,0,0,10.326,4.092A13.791,13.791,0,0,0,84.268,90.5c1.409-.126,6.313-.762,8.568-3.8A6.245,6.245,0,0,0,93.689,81.166ZM64.743,58.34V70.563c-.831.141-1.632.311-2.381.5V55.439A2.964,2.964,0,0,1,64.743,58.34ZM39.076,87.093V55.38H59.5V72.021c-2.722,1.176-3.36,2.516-3.368,3.5a31.991,31.991,0,0,0,.623,6.208,27.223,27.223,0,0,0,1.617,5.364Zm52.573-1.258c-2.166,2.93-7.767,3.226-7.819,3.226h-.052c-.007,0-.037.007-.052.007h-.015c-.015.007-.037.007-.052.015h-.015c-.015.007-.037.015-.052.022l-.015.007c-.015.007-.037.015-.052.022l-.015.007a.155.155,0,0,0-.045.03l-.015.007-.045.03-.015.015c-.015.015-.03.022-.037.037l-.015.015a.2.2,0,0,0-.037.044l-.007.015a.226.226,0,0,0-.037.052v.007A12.389,12.389,0,0,1,72.273,95.2a12.479,12.479,0,0,1-9.258-3.64c-2.871-2.915-4.176-7.089-4.77-10.07a30.549,30.549,0,0,1-.6-5.927V75.55c0-1.709,5.564-4.1,14.629-4.1S86.9,73.841,86.9,75.55v.015a27.786,27.786,0,0,1-.171,3.049v.2c0,.015.007.03.007.044s.007.022.007.03l.015.037c0,.015.007.022.015.037s.007.022.015.03.007.022.015.037l.015.03c.007.015.015.022.022.037l.015.03.022.03a149.581,149.581,0,0,0,.045.059c.007.007.015.022.022.03l.022.022.03.03.022.015.037.03.022.015.037.022.022.015.037.015.037.015.037.007c.015.007.03.007.045.015l.03.007.052.007h.185c.037-.007,4.058-.451,4.725,2.109A4.866,4.866,0,0,1,91.649,85.835Z" transform="translate(-37.6 -53.9)" fill="#999"/>
      <path id="Trazado_195" data-name="Trazado 195" d="M679.27,414.956a6.344,6.344,0,0,0-1.683.045h-.007l-.052.015-.022.007-.045.015-.03.007-.03.015-.037.015-.022.015-.037.03-.015.015-.037.03c-.007.007-.015.015-.022.015l-.03.03a.1.1,0,0,0-.022.03l-.022.022-.03.037-.015.022c-.008.015-.015.022-.022.037a.057.057,0,0,1-.015.022c-.008.007-.008.022-.015.03l-.015.037c0,.008-.007.015-.007.03a.106.106,0,0,0-.015.045.027.027,0,0,1-.008.022c-.007.007-.007.037-.015.052v.008a26.674,26.674,0,0,1-1.339,4.734c0,.007,0,.007-.007.015a.776.776,0,0,0-.052.262.745.745,0,0,0,.733.763h.082a10.58,10.58,0,0,0,1.75-.165,4.9,4.9,0,0,0,3.029-1.54,3.122,3.122,0,0,0,.5-2.849A2.579,2.579,0,0,0,679.27,414.956Zm.748,3.769a4.121,4.121,0,0,1-2.58,1.077,27.837,27.837,0,0,0,.912-3.38c.636-.037,1.705.022,1.885.755A1.68,1.68,0,0,1,680.018,418.725Z" transform="translate(-628.344 -388.257)" fill="#999"/>
      <path id="Trazado_196" data-name="Trazado 196" d="M387.873,469.2a.75.75,0,0,0-.748.748.572.572,0,0,1-.583.546.564.564,0,0,1-.546-.546.748.748,0,0,0-1.5,0,2.061,2.061,0,0,0,4.121,0A.745.745,0,0,0,387.873,469.2Z" transform="translate(-358.783 -438.493)" fill="#999"/>
      <path id="Trazado_197" data-name="Trazado 197" d="M524.673,469.2a.75.75,0,0,0-.748.748.572.572,0,0,1-.583.546.564.564,0,0,1-.546-.546.748.748,0,0,0-1.5,0,2.061,2.061,0,0,0,4.12,0A.75.75,0,0,0,524.673,469.2Z" transform="translate(-485.441 -438.493)" fill="#999"/>
      <path id="Trazado_198" data-name="Trazado 198" d="M547.355,131.266a.745.745,0,0,0,0,1.054.734.734,0,0,0,.531.217.766.766,0,0,0,.531-.217,2.618,2.618,0,0,0,0-3.694,1.119,1.119,0,0,1,0-1.578.746.746,0,1,0-1.054-1.054,2.618,2.618,0,0,0,0,3.694A1.126,1.126,0,0,1,547.355,131.266Z" transform="translate(-508.856 -120.4)" fill="#999"/>
      <path id="Trazado_199" data-name="Trazado 199" d="M452.055,131.266a.745.745,0,0,0,0,1.054.734.734,0,0,0,.531.217.766.766,0,0,0,.531-.217,2.618,2.618,0,0,0,0-3.694,1.119,1.119,0,0,1,0-1.578.746.746,0,0,0-1.054-1.054,2.618,2.618,0,0,0,0,3.694A1.126,1.126,0,0,1,452.055,131.266Z" transform="translate(-420.623 -120.4)" fill="#999"/>
      <path id="Trazado_200" data-name="Trazado 200" d="M495.068,107.72a2.408,2.408,0,0,1,0,1.825,2.311,2.311,0,0,1-.531.793.745.745,0,0,0,0,1.054.734.734,0,0,0,.531.217.766.766,0,0,0,.531-.217,3.918,3.918,0,0,0,0-5.534,2.5,2.5,0,0,1-.531-.793,2.409,2.409,0,0,1,0-1.825,2.311,2.311,0,0,1,.531-.793.746.746,0,1,0-1.054-1.054,3.918,3.918,0,0,0,0,5.534A2.478,2.478,0,0,1,495.068,107.72Z" transform="translate(-459.605 -97.64)" fill="#999"/>
      <path id="Trazado_201" data-name="Trazado 201" d="M453.538,516.427a7.155,7.155,0,0,1-1.339-.112.742.742,0,0,1-.538-1.054h0a.743.743,0,0,1,.808-.411,6.991,6.991,0,0,0,2.139,0,.743.743,0,0,1,.808.411h0a.748.748,0,0,1-.538,1.054A7.851,7.851,0,0,1,453.538,516.427Z" transform="translate(-420.894 -480.745)" fill="#999"/>
      <path id="Trazado_202" data-name="Trazado 202" d="M168.238,316.027a7.154,7.154,0,0,1-1.339-.112.742.742,0,0,1-.538-1.054h0a.743.743,0,0,1,.808-.411,6.991,6.991,0,0,0,2.139,0,.743.743,0,0,1,.808.411h0a.748.748,0,0,1-.538,1.054A7.155,7.155,0,0,1,168.238,316.027Z" transform="translate(-156.745 -295.167)" fill="#999"/>
    </g>
  </g>
</svg>
