<svg xmlns="http://www.w3.org/2000/svg" width="116" height="116" viewBox="0 0 116 116"><rect width="116" height="116" transform="translate(0 0)" fill="none"/><g transform="translate(21.355 15.577)"><path d="M5,3.368V82.741A1.368,1.368,0,0,0,6.368,84.11H66.556a1.368,1.368,0,0,0,1.368-1.368V81.373H77.5A1.368,1.368,0,0,0,78.867,80V6.105A1.368,1.368,0,0,0,77.5,4.737H58.914L56.579,2.4a1.368,1.368,0,0,0-.967-.4H6.368A1.368,1.368,0,0,0,5,3.368ZM76.131,7.474V78.636H67.923V14.316a1.369,1.369,0,0,0-.4-.967L61.65,7.474Zm-19.151-.8,6.273,6.276H56.98ZM7.736,4.737H54.244v9.579a1.368,1.368,0,0,0,1.368,1.368h9.575V81.373H7.736Z" transform="translate(-5 -2)" fill="#37bffa" stroke="#37bffa" stroke-width="1"/><g transform="translate(13.052 24.181)"><path d="M91.79,104.923l2.839-2.839,4.4-4.4a15.407,15.407,0,0,1,1.247-1.2l-.311.242a4.162,4.162,0,0,1,.882-.518c-.123.05-.246.1-.368.154a4.267,4.267,0,0,1,1.067-.292c-.134.019-.272.038-.407.054a4.351,4.351,0,0,1,1.047,0c-.134-.019-.272-.038-.407-.054a4.11,4.11,0,0,1,1.067.292c-.123-.05-.246-.1-.368-.154a4.328,4.328,0,0,1,.882.518l-.311-.242a4.1,4.1,0,0,1,.706.706l-.242-.311a4.161,4.161,0,0,1,.518.882c-.05-.123-.1-.246-.154-.368a4.268,4.268,0,0,1,.292,1.067c-.019-.134-.038-.272-.054-.407a4.35,4.35,0,0,1,0,1.047c.019-.134.038-.272.054-.407a4.111,4.111,0,0,1-.292,1.067c.05-.123.1-.246.154-.368a4.326,4.326,0,0,1-.518.883l.242-.311a14.214,14.214,0,0,1-1.105,1.151l-2.114,2.114-4.669,4.67a18.048,18.048,0,0,1-1.6,1.508l.311-.242a8.72,8.72,0,0,1-1.776,1.024c.123-.05.246-.1.368-.154a8.379,8.379,0,0,1-2.087.572c.134-.019.272-.038.407-.054a8.463,8.463,0,0,1-2.2,0c.134.019.272.038.407.054a8.378,8.378,0,0,1-2.087-.572c.123.05.246.1.368.154a8.2,8.2,0,0,1-1.773-1.032l.311.242a8.326,8.326,0,0,1-1.492-1.493l.242.311a7.971,7.971,0,0,1-1.036-1.773c.05.123.1.246.153.368a8.38,8.38,0,0,1-.572-2.087c.019.134.038.272.054.407a8.467,8.467,0,0,1,0-2.2c-.019.134-.038.272-.054.407a8.38,8.38,0,0,1,.572-2.087c-.05.123-.1.246-.153.368a8.2,8.2,0,0,1,1.032-1.773l-.242.311a21.107,21.107,0,0,1,1.872-1.968l3.38-3.38,4.167-4.167,3.553-3.553c.5-.5.994-1,1.5-1.5a8.614,8.614,0,0,1,.794-.7l-.311.242a8.107,8.107,0,0,1,1.773-1.032c-.123.05-.246.1-.368.153a8.378,8.378,0,0,1,2.087-.572c-.134.019-.272.038-.407.054a8.461,8.461,0,0,1,2.2,0c-.134-.019-.272-.038-.407-.054a8.379,8.379,0,0,1,2.087.572c-.123-.05-.246-.1-.368-.153a8.2,8.2,0,0,1,1.773,1.032l-.311-.242a8.329,8.329,0,0,1,1.492,1.493l-.242-.311a8.105,8.105,0,0,1,1.032,1.773c-.05-.123-.1-.246-.153-.368a8.38,8.38,0,0,1,.572,2.087c-.019-.134-.038-.272-.054-.407a8.464,8.464,0,0,1,0,2.2c.019-.134.038-.272.054-.407a8.379,8.379,0,0,1-.572,2.087c.05-.123.1-.246.153-.368a8.2,8.2,0,0,1-1.032,1.773l.242-.311a8.075,8.075,0,0,1-.7.794,1.536,1.536,0,0,0,2.172,2.172,9.665,9.665,0,0,0,2.755-7.893,9.587,9.587,0,0,0-4.7-7.294,9.736,9.736,0,0,0-8.249-.725,9.912,9.912,0,0,0-3.5,2.229l-.4.4-2.356,2.356-3.587,3.588-3.725,3.726L84.42,96.3a18.156,18.156,0,0,0-1.957,2.172,9.676,9.676,0,0,0,12.719,13.955,14.755,14.755,0,0,0,3.054-2.575l3.472-3.472,3.231-3.231.633-.633a5.611,5.611,0,0,0,1.631-3.99,5.519,5.519,0,0,0-2-4.209,5.642,5.642,0,0,0-2.264-1.14,5.881,5.881,0,0,0-2.586,0,5.6,5.6,0,0,0-2.716,1.554l-.89.89L93.275,99.1l-3.154,3.154-.51.51a1.555,1.555,0,0,0,0,2.172,1.587,1.587,0,0,0,2.179-.011Z" transform="translate(-80.718 -80.588)" fill="#37bffa" stroke="#37bffa" stroke-width="1"/></g></g><g transform="translate(71.55 43.889)" fill="#37bffa" stroke="#fff" stroke-width="3"><circle cx="19.885" cy="19.885" r="19.885" stroke="none"/><circle cx="19.885" cy="19.885" r="21.385" fill="none"/></g><path d="M-.693,0H2.5V-14.8H.294l-4.221,1.26.672,2.646,2.562-.63Z" transform="translate(89.66 70.759)" fill="#fff"/></svg>