<svg xmlns="http://www.w3.org/2000/svg" xmlns:xlink="http://www.w3.org/1999/xlink" width="169.398" height="82" viewBox="0 0 169.398 82"><defs><clipPath id="a"><path d="M183.885,225.7v1.176h-2.851c-2.1,0-2.151,3.26-.053,3.26h2.9v21.8c0,2.351,3.927,2.351,3.927,0v-21.8h5.164c1.936,0,1.936-3.26,0-3.26h-5.164v-1.122c0-4.115,4.841-5.344,7.047-3.314a1.753,1.753,0,0,0,2.2-2.725,8.28,8.28,0,0,0-5.071-1.7c-4.113,0-8.107,2.9-8.107,7.682" transform="translate(-179.434 -218.022)" fill="none"/></clipPath></defs><g transform="translate(77 -55)"><g transform="translate(-77 55)"><g transform="translate(0)"><path d="M246.41,209.846,83.9,219.894l-.474-59.126,162.988-9.611Z" transform="translate(-83.421 -151.157)" fill="#fff"/><g transform="translate(18.063 12.579)"><g transform="translate(22.116 0.791)"><path d="M302.438,224.93a2.724,2.724,0,1,1-2.724-2.706,2.715,2.715,0,0,1,2.724,2.706" transform="translate(-296.991 -222.224)" fill="#c0cd29"/></g><g transform="translate(22.845 8.364)"><path d="M300.866,264.211c0-2.269,3.878-2.322,3.878-.053v23.8c0,2.322-3.878,2.269-3.878,0Z" transform="translate(-300.866 -262.482)" fill="#6eb5d9"/></g><g transform="translate(34 7.876)"><path d="M382.315,271.711a8.19,8.19,0,0,0-8.234-8.234,10.055,10.055,0,0,0-9.987,9.976V285.7a1.716,1.716,0,0,1-1.913,1.848,1.8,1.8,0,0,1-2.019-1.848V262.052a1.914,1.914,0,0,1,3.825.053v3.273c1.913-3.853,6-5.489,10.147-5.489,6.162,0,12.059,4.222,12.059,11.823V285.7a1.715,1.715,0,0,1-1.913,1.848,1.782,1.782,0,0,1-1.966-1.848Z" transform="translate(-360.162 -259.888)" fill="#6eb5d9"/></g><g transform="translate(64.484 0.348)"><path d="M537.136,227.876a1.667,1.667,0,1,1,0,3.325h-5.79v14.251c0,3.009.478,6.175,4.091,6.175a5.994,5.994,0,0,0,2.5-.58c2.231-1.267,3.984,1.847,1.594,3.166a7.993,7.993,0,0,1-4.091.9c-6.375,0-7.916-4.645-7.916-9.659V231.2h-3.506a1.669,1.669,0,1,1,0-3.325h3.506v-6.122a1.913,1.913,0,0,1,3.826,0v6.122Z" transform="translate(-522.201 -219.873)" fill="#6eb5d9"/></g><g transform="translate(88.024 8.246)"><path d="M651.1,266.339c1.7-3.536,4.887-4.486,7.915-4.486a1.773,1.773,0,0,1,2.019,1.847c0,1.161-.8,1.795-2.019,1.795-5.471,0-7.809,4.328-7.809,9.659v11.928a1.854,1.854,0,0,1-1.913,1.847,1.809,1.809,0,0,1-1.966-1.847V263.7c0-2.322,3.772-2.534,3.772,0Z" transform="translate(-647.328 -261.853)" fill="#6eb5d9"/></g><g transform="translate(104.429 8.028)"><path d="M742.669,261.705a12.807,12.807,0,0,1,5.684-1c3.028.053,6.481,1,8.394,4.117v-2.006a1.779,1.779,0,0,1,1.912-1.9,1.849,1.849,0,0,1,1.966,1.9v23.435a1.821,1.821,0,0,1-1.966,1.9,1.753,1.753,0,0,1-1.912-1.9v-2.533c-1.541,3.061-5.472,4.8-8.607,4.8a13.493,13.493,0,0,1-7.65-2.27,13.951,13.951,0,0,1-5.95-12.4,13.051,13.051,0,0,1,8.181-12.193Zm14.078,14.937v-4.169c0-5.226-3.666-7.917-8.447-8.128a9.513,9.513,0,0,0-9.084,5.647,11.343,11.343,0,0,0-.8,3.906,10.7,10.7,0,0,0,3.878,8.972,10.322,10.322,0,0,0,5.471,2.006c4.887,0,8.713-2.956,8.978-8.234" transform="translate(-734.532 -260.696)" fill="#6eb5d9"/></g><g clip-path="url(#a)"><g transform="translate(-11.409 23.507)"><rect width="40.898" height="11.998" fill="#e0a962"/></g><g transform="translate(-11.409 12.251)"><rect width="40.898" height="11.256" fill="#c0cd29"/></g><g transform="translate(-11.409 -0.489)"><rect width="40.898" height="12.74" fill="#6eb5d9"/></g></g></g><g transform="translate(29.914 49.777)"><g transform="translate(6.455)"><path d="M279.449,425.409c1.884.383,130.322-9.66,130.322-9.66l-3.445,23.783-129.584,8.439Z" transform="translate(-276.742 -415.749)" fill="#e5b100"/></g><g transform="translate(30.243 7.807)"><path d="M403.212,477.066a14.015,14.015,0,0,1,1.8-.527q.984-.222,2.151-.412t2.434-.4q1.266-.212,2.528-.438a1.013,1.013,0,0,1,.608.072,3.637,3.637,0,0,1,.448.5,1.96,1.96,0,0,1,.51.219,2.269,2.269,0,0,1,.325.3,1.461,1.461,0,0,0,.336.287q-.156.04-.995.3t-1.669.513q-.831.251-1.825.5t-2.013.472l-.36,3.005,4.809-.7a1.042,1.042,0,0,1,.449.518.575.575,0,0,0,.135.2q.084.083.425.37a1.55,1.55,0,0,1,.431.489q-1.578.537-3.38,1.024a16.009,16.009,0,0,1-2.954.566q-.185.661-.341,1.19t-.3,1.156a7.45,7.45,0,0,0-.174,1.253,4.891,4.891,0,0,0,.08,1.2q.444-.1,1.36-.333t1.45-.363c.357-.089.77-.17,1.239-.25s.926-.133,1.37-.163a8.127,8.127,0,0,1,2.17.12,2.793,2.793,0,0,1,.522.777,5.184,5.184,0,0,0,.388.706l-10.019,2.122a1.565,1.565,0,0,0-.978-.819,8.511,8.511,0,0,1-.558-2.135,7.081,7.081,0,0,1,.01-1.82,14.966,14.966,0,0,1,.37-1.744q.248-.914.288-1.166-.182-.227-.591-.693t-.508-.558q.352-.124.736-.23c.256-.071.467-.128.633-.173q.124-.537.166-.824t.207-1.455q.166-1.167.2-1.349-.189-.006-.334-.017a2.461,2.461,0,0,1-.251-.028,1.264,1.264,0,0,1-.23-.059,1.6,1.6,0,0,1-.63-.48A5.416,5.416,0,0,1,403.212,477.066Z" transform="translate(-403.186 -471.888)" fill="#fff"/><path d="M474.727,466.028a1.658,1.658,0,0,1,.3-.181,2.231,2.231,0,0,1,.242-.07c.094-.024.234-.062.42-.114a1.366,1.366,0,0,1,.3-.06,2.26,2.26,0,0,1,.583.03.777.777,0,0,1,.386.163l-1.218,16.289a1.058,1.058,0,0,1-.405-.062,3.055,3.055,0,0,1-.46-.2c-.157-.082-.293-.149-.41-.2a1.282,1.282,0,0,1-.813-.1,3.483,3.483,0,0,1-.068-.351,2.372,2.372,0,0,1-.021-.364c0-.126,0-.252,0-.375a1.84,1.84,0,0,0-.067-.442q-1.528,2.467-3.142,2.578a3.409,3.409,0,0,1-2.9-2.033,6.08,6.08,0,0,1-.443-2.715,7.718,7.718,0,0,1,.828-3.131,6.737,6.737,0,0,1,2.343-2.623,7.993,7.993,0,0,1,3.992-1.231Zm-.87,6.539a4.8,4.8,0,0,0-2.8,1.764,6.9,6.9,0,0,0-1.374,2.987,4.387,4.387,0,0,0,.1,2.555,1.139,1.139,0,0,0,.393.521,1.618,1.618,0,0,0,1.044-.56,4.868,4.868,0,0,0,.8-1.091q.3-.568.7-1.451a11.2,11.2,0,0,1,.56-1.144q.134-.695.354-1.925A11.461,11.461,0,0,0,473.857,472.566Z" transform="translate(-455.006 -464.025)" fill="#fff"/><path d="M523.816,504.244a2.751,2.751,0,0,1-.636-.913,4.983,4.983,0,0,1-.283-2.646,13.454,13.454,0,0,1,.712-2.983,25.506,25.506,0,0,1,1.09-2.577.556.556,0,0,1,.257-.077,1.63,1.63,0,0,1,.486.06,2.721,2.721,0,0,0,.378.08,1.8,1.8,0,0,0,.358-.085,1.768,1.768,0,0,1,.381-.085.494.494,0,0,1,.412.171q-.592,2.083-.909,3.221t-.5,1.933a8.668,8.668,0,0,0-.211,1.325,1.84,1.84,0,0,0,.107.85.935.935,0,0,0,.271.351,2.363,2.363,0,0,0,1.313-.832,9.824,9.824,0,0,0,1.305-2.312q.717-1.629,1.719-4.578a.317.317,0,0,1,.314-.211,2.007,2.007,0,0,1,.524.068,2,2,0,0,0,.514.071.744.744,0,0,0,.372-.171.753.753,0,0,1,.361-.169.644.644,0,0,1,.381.123l-.814,10.171a.886.886,0,0,1-.38-.033,1.291,1.291,0,0,1-.281-.175,1.405,1.405,0,0,0-.275-.176,1.69,1.69,0,0,0-.486-.086c-.254-.022-.4-.078-.441-.169a3.051,3.051,0,0,1-.243-1.065,7.305,7.305,0,0,0-.07-.778,3.224,3.224,0,0,0-.452.57q-.361.513-.727.947a4.526,4.526,0,0,1-.937.817,2.446,2.446,0,0,1-1.213.427A3.3,3.3,0,0,1,523.816,504.244Z" transform="translate(-500.33 -487.679)" fill="#fff"/><path d="M581.258,498.407a2.808,2.808,0,0,1-.829-1.167,5.458,5.458,0,0,1-.436-2.014,5.7,5.7,0,0,1,1.973-4.488,7.648,7.648,0,0,1,2.926-1.563,3.34,3.34,0,0,1,.587-.12,3.02,3.02,0,0,1,1.186.158,1.871,1.871,0,0,1,.8.443.386.386,0,0,1,.281-.128,1.825,1.825,0,0,1,.9.227,3.381,3.381,0,0,1,.835.55q.1.232-.294.912a8.585,8.585,0,0,1-.938,1.3c-.361.413-.629.629-.807.649.03,0-.037-.015-.2-.036a2.2,2.2,0,0,0-.3-.028l-.505-.484a2.776,2.776,0,0,1-.457-.128.593.593,0,0,1-.373-.3c.04-.189.078-.367.112-.536a2.978,2.978,0,0,1,.176-.551,2.841,2.841,0,0,1,.383-.634,3.575,3.575,0,0,0-2.082,1.554,7.5,7.5,0,0,0-1.234,2.868,4.2,4.2,0,0,0,.079,2.5,1.39,1.39,0,0,0,.566.677,2.6,2.6,0,0,0,1.1.163,2.915,2.915,0,0,0,1.987-1.006,3.577,3.577,0,0,0,.979-2.077.926.926,0,0,1,.233.292c.014.065.022.115.026.151s.012.079.022.127.018.091.025.123.091.1.223.243a1.717,1.717,0,0,1,.314.474,2.6,2.6,0,0,1-.293,1.564,2.911,2.911,0,0,1-1.176,1.157,4.111,4.111,0,0,1-1.748.507A5.7,5.7,0,0,1,581.258,498.407Z" transform="translate(-546.727 -483.065)" fill="#fff"/><path d="M639.07,486.1a1.119,1.119,0,0,1,.159-.271.724.724,0,0,0,.145-.279q.653-.045,1.1-.036a1.126,1.126,0,0,1,.485.047.891.891,0,0,1,.225.114l-.924,10.368a.334.334,0,0,1-.2.073,1.278,1.278,0,0,1-.271-.021,2.018,2.018,0,0,1-.31-.068c-.085-.026-.189-.057-.311-.088a2.213,2.213,0,0,0-.4.166,1.3,1.3,0,0,1-.417.148.258.258,0,0,1-.28-.16,2.4,2.4,0,0,1,.1-1.333,2.7,2.7,0,0,1-.873.933,4.125,4.125,0,0,1-1.268.7,2.015,2.015,0,0,1-.378.066,3.587,3.587,0,0,1-1.007-.094,3.948,3.948,0,0,1-1.051-.393,1.689,1.689,0,0,1-.674-.591,3.652,3.652,0,0,1-.455-.766,3.742,3.742,0,0,1-.291-1.58,6.94,6.94,0,0,1,.494-2.2,8.244,8.244,0,0,1,2.1-3.229,5.392,5.392,0,0,1,3.457-1.508A6.3,6.3,0,0,1,639.07,486.1Zm-.305,1.575a4.187,4.187,0,0,0-2.373,1.528,7.2,7.2,0,0,0-1.478,2.842,3.932,3.932,0,0,0,.038,2.588,2.444,2.444,0,0,0,1.136-.391,2.916,2.916,0,0,0,.828-.85,5.329,5.329,0,0,0,.537-1.047q.2-.527.463-1.4A22.331,22.331,0,0,0,638.765,487.677Z" transform="translate(-589.096 -480.194)" fill="#fff"/><path d="M689.33,461.47l1.218-.139,1.94-.217c.021.065.044.141.072.229a.724.724,0,0,1,.012.318.544.544,0,0,1-.158.315.235.235,0,0,0-.01.24c.03.051.057.1.078.138s.048.1.077.16a.324.324,0,0,1,0,.289q-1.18.12-2.129.29t-1.313.265q-.046.291-.166,1.087t-.315,2.106q-.2,1.308-.394,2.846t-.437,3.608a.655.655,0,0,1-.175.052.8.8,0,0,1-.491-.15,3.991,3.991,0,0,1-.531-.427c-.185-.174-.3-.275-.345-.306a.944.944,0,0,0-.609-.088.694.694,0,0,1-.625-.176q.07-1.081.186-1.936t.306-1.835q.19-.98.413-2t.5-2.577q-.125.009-2.725.416c-.211.014-.33-.011-.358-.075a.835.835,0,0,1,.04-.317.7.7,0,0,0-.015-.442c-.04-.037-.13-.119-.271-.246a1.119,1.119,0,0,1-.246-.267.376.376,0,0,1,.032-.351,15.528,15.528,0,0,1,2.036-.379q1.011-.119,1.863-.3c.025-.1.052-.233.082-.394s.089-.445.177-.85.151-.681.186-.83q.128-.447.254-1.059c.084-.407.142-.713.178-.914a1.788,1.788,0,0,1,.559-.208c.227-.049.367-.082.422-.1a2.843,2.843,0,0,1,.711.046,1.338,1.338,0,0,1,.586.233c-.049.257-.112.623-.188,1.1s-.152.97-.225,1.48S689.395,461.073,689.33,461.47Z" transform="translate(-630.225 -457.245)" fill="#fff"/><path d="M733.193,472.565q-.031.749-.038,1.168t-.011,1.083q0,.662-.04,1.333t-.076,1.161a.85.85,0,0,1-.2.054,1.743,1.743,0,0,1-.771-.176,5.856,5.856,0,0,1-.8-.4q-1.033-.307-1.241-.782.194-1.748.618-4.218.144-.859.351-1.868t.359-1.535a1.659,1.659,0,0,1,.254-.61.36.36,0,0,1,.212-.074,1.4,1.4,0,0,1,.369.045,2.183,2.183,0,0,0,.362.055,1.022,1.022,0,0,0,.347-.109,1.1,1.1,0,0,1,.371-.11.526.526,0,0,1,.358.125q-.041.333-.13,1.21t-.177,1.986Q733.224,472,733.193,472.565Zm-.92-6.205a2.124,2.124,0,0,1-.7-.87,1.659,1.659,0,0,1-.115-1.128,1.106,1.106,0,0,1,.636-.761l.354-.064a1.433,1.433,0,0,1,1.337.825,1.483,1.483,0,0,1,.094.88,1.591,1.591,0,0,1-.4.815,1.068,1.068,0,0,1-.729.369A1.356,1.356,0,0,1,732.273,466.36Z" transform="translate(-668.532 -462.353)" fill="#fff"/><path d="M753.99,486.9q-.247-.56-1.056-2.971t-1.328-4.036q-.52-1.624-.8-2.531a.945.945,0,0,1,.806-.071l.425.146a1.736,1.736,0,0,0,.516.049,1.385,1.385,0,0,1,.548.082,1.018,1.018,0,0,1,.429.4q.176.4.469,1.154a12.391,12.391,0,0,1,.444,1.335q.231.891.4,1.567t.292,1.175q.077-.114.62-1.083T757,479.959q.712-1.2,1.358-2.142a4.18,4.18,0,0,1,.98-1.138,1.015,1.015,0,0,1,.369-.085l.734-.05a1.354,1.354,0,0,0,.441-.135,1.351,1.351,0,0,1,.418-.133.521.521,0,0,1,.465.238l-5.814,10.723a.28.28,0,0,1-.119.048,1.169,1.169,0,0,1-.4-.112,1.433,1.433,0,0,0-.425-.12,5.824,5.824,0,0,1-.631-.007A.911.911,0,0,1,753.99,486.9Z" transform="translate(-685.407 -472.694)" fill="#fff"/><path d="M805.991,484.861a4.461,4.461,0,0,1-2.92-2.529,5.034,5.034,0,0,1-.418-1.974,6.165,6.165,0,0,1,.341-2.111,6.56,6.56,0,0,1,1.075-1.952,6.441,6.441,0,0,1,1.776-1.537,2.721,2.721,0,0,1,1.278-.4,3.515,3.515,0,0,1,1.558.262,5.269,5.269,0,0,1,1.445.861,4.406,4.406,0,0,1,.977,1.094,6.865,6.865,0,0,1,.531,2.535,8.859,8.859,0,0,1-.338,2.8,5.3,5.3,0,0,1-1.267,2.255,3.188,3.188,0,0,1-2.14.988A4.613,4.613,0,0,1,805.991,484.861Zm2.221-8.353a.993.993,0,0,0-.395-.052,1.878,1.878,0,0,0-1.367.949,7.174,7.174,0,0,0-.9,1.694,5.952,5.952,0,0,0-.268,1.79,3.936,3.936,0,0,0,.284,1.593,1.225,1.225,0,0,0,.768.763,2.2,2.2,0,0,0,1.529-.7,5.08,5.08,0,0,0,.986-1.9,4.967,4.967,0,0,0,.166-1.166,7.714,7.714,0,0,0-.058-1.329,3.988,3.988,0,0,0-.277-1.075A.981.981,0,0,0,808.212,476.508Z" transform="translate(-727.502 -471.135)" fill="#fff"/></g><g transform="translate(0 16.625)"><path d="M242.43,504.634l6.455,15.083,1.871-15.6Z" transform="translate(-242.43 -504.12)" fill="#b78123"/></g></g></g></g></g></svg>